<?xml version="1.0" encoding="utf-8"?>
<!-- Generator: Adobe Illustrator 27.0.0, SVG Export Plug-In . SVG Version: 6.00 Build 0)  -->
<svg version="1.1" id="Layer_1" xmlns="http://www.w3.org/2000/svg" xmlns:xlink="http://www.w3.org/1999/xlink" x="0px" y="0px"
	 viewBox="0 0 41 40" style="enable-background:new 0 0 41 40;" xml:space="preserve">
<style type="text/css">
	.st0{fill:#D2ADCE;}
	.st1{fill:#FFFFFF;}
</style>
<rect class="st0" width="41" height="40"/>
<g>
	<path class="st1" d="M6.8,13.1c2.7,0,5.4,0,8.1,0c1.2,0,2.2,0.1,3.1,0.7c1.3,0.7,2,1.7,2.1,3.1c0,0.5,0,1-0.1,1.5
		c-0.2,1-0.7,1.7-1.6,2.2c-0.1,0.1-0.2,0.1-0.2,0.2c0.2,0.2,0.6,0.2,0.8,0.5c1.2,0.7,1.6,1.8,1.7,3c0.1,1.3-0.2,2.6-1.2,3.7
		c-0.7,0.9-1.8,1.5-3,1.7c-0.7,0.1-1.3,0.2-2,0.2c-2.6,0-5.2,0-7.7,0C6.8,24.2,6.8,18.7,6.8,13.1z M10.2,27c0.1,0,0.2,0,0.2,0
		c1.2,0,2.3,0,3.5,0c0.4,0,0.7,0,1.2-0.1c1-0.1,1.7-0.7,1.9-1.6c0.1-0.4,0.1-0.7,0-1.2c-0.1-0.6-0.4-1-0.8-1.2
		c-0.5-0.2-0.9-0.4-1.5-0.4c-1.4,0-2.9,0-4.3,0c-0.1,0-0.1,0-0.2,0C10.2,24,10.2,25.5,10.2,27z M10.2,19.8c0.1,0,0.1,0,0.2,0
		c1.3,0,2.7,0,4.1,0c0.4,0,0.8-0.1,1.2-0.2c0.5-0.1,0.7-0.4,0.9-0.8c0.2-0.4,0.2-0.8,0.1-1.2c-0.1-0.7-0.5-1-1.2-1.2
		c-0.2-0.1-0.7-0.2-0.9-0.2c-1.4,0-2.9,0-4.3-0.1h-0.1C10.2,17.3,10.2,18.5,10.2,19.8z"/>
	<path class="st1" d="M34.3,24.7c-3,0-6.1,0-9.1,0c0,1.5,0.7,2.7,2.2,3c0.8,0.2,1.8,0.1,2.6-0.4c0.2-0.2,0.5-0.5,0.7-0.7
		c0.1-0.1,0.2-0.2,0.2-0.2c1,0,2.1,0,3,0H34c0,0.5-0.2,0.8-0.5,1.2c-0.9,1.6-2.3,2.5-4.2,2.7c-1.7,0.2-3.4,0-4.9-0.9
		c-1.3-0.7-2.2-2-2.5-3.5c-0.4-1.7-0.2-3.5,0.4-5.1c0.7-1.8,2.1-2.9,4-3.3c1.7-0.4,3.4-0.2,4.9,0.6c1.2,0.7,2.1,1.7,2.6,3
		C34.3,22.1,34.3,23.3,34.3,24.7z M25.3,22.4c1.9,0,3.7,0,5.6,0c0-1.4-0.9-2.5-2.5-2.6C26.6,19.8,25.5,20.6,25.3,22.4z"/>
	<path class="st1" d="M31.6,13.9c0,0.7,0,1.3,0,2.1c-2.5,0-4.8,0-7.2,0c0-0.7,0-1.3,0-2.1C26.8,13.9,29.3,13.9,31.6,13.9z"/>
</g>
</svg>
