<svg width="41" height="40" viewBox="0 0 41 40" fill="none" xmlns="http://www.w3.org/2000/svg">
<g clip-path="url(#clip0_954_69)">
<path d="M41 0H0V40H41V0Z" fill="#D2ADCE"/>
<path d="M30.7999 30.3008C29.3999 30.3008 27.8999 30.3008 26.4999 30.3008C26.4999 30.2008 26.4999 30.1009 26.4999 30.0009C26.4999 27.6009 26.4999 25.2008 26.4999 22.9008C26.4999 21.8008 25.8999 21.0009 24.8999 20.7009C23.6999 20.3009 22.2999 21.2009 22.1999 22.5009C22.1999 22.7009 22.1999 22.9009 22.1999 23.1009C22.1999 25.4009 22.1999 27.8009 22.1999 30.1009C22.1999 30.2009 22.1999 30.3008 22.1999 30.4009C20.7999 30.4009 19.2999 30.4009 17.8999 30.4009C17.8999 26.1009 17.8999 21.8009 17.8999 17.5009C19.2999 17.5009 20.6999 17.5009 22.1999 17.5009C22.1999 18.0009 22.1999 18.6009 22.1999 19.1009C22.5999 18.7009 22.9999 18.3009 23.3999 18.0009C25.2999 16.7009 27.4999 17.1008 28.9999 18.4008C30.1999 19.4008 30.7999 20.7009 30.7999 22.2009C30.7999 24.9009 30.7999 27.5009 30.7999 30.2009C30.7999 30.2009 30.7999 30.2008 30.7999 30.3008Z" fill="white"/>
<path d="M10.6 17.3984C12 17.3984 13.5 17.3984 14.9 17.3984C14.9 21.6984 14.9 25.9984 14.9 30.2984C13.5 30.2984 12.1 30.2984 10.6 30.2984C10.6 25.9984 10.6 21.6984 10.6 17.3984Z" fill="white"/>
<path d="M15.4 12.2992C15.4 13.6992 14.2 14.8992 12.8 14.8992C11.4 14.8992 10.2 13.7992 10.2 12.2992C10.2 10.8992 11.4 9.69922 12.8 9.69922C14.2 9.69922 15.4 10.8992 15.4 12.2992Z" fill="white"/>
</g>
<defs>
<clipPath id="clip0_954_69">
<rect width="41" height="40" fill="white"/>
</clipPath>
</defs>
</svg>
