<?xml version="1.0" encoding="utf-8"?>
<!-- Generator: Adobe Illustrator 27.0.0, SVG Export Plug-In . SVG Version: 6.00 Build 0)  -->
<svg version="1.1" id="Layer_1" xmlns="http://www.w3.org/2000/svg" xmlns:xlink="http://www.w3.org/1999/xlink" x="0px" y="0px"
	 viewBox="0 0 121 121" style="enable-background:new 0 0 121 121;" xml:space="preserve">
<style type="text/css">
	.st0{fill-rule:evenodd;clip-rule:evenodd;fill:url(#SVGID_1_);}
	.st1{fill-rule:evenodd;clip-rule:evenodd;fill:url(#SVGID_00000054950190625448621630000010746766933447070382_);}
	.st2{fill-rule:evenodd;clip-rule:evenodd;fill:url(#SVGID_00000049925842361792974160000013711418984209598369_);}
	.st3{fill-rule:evenodd;clip-rule:evenodd;fill:url(#SVGID_00000183928179471277581480000000886455425189806004_);}
	.st4{fill-rule:evenodd;clip-rule:evenodd;fill:url(#SVGID_00000083781650988017737070000012729215419888593328_);}
	.st5{fill-rule:evenodd;clip-rule:evenodd;fill:url(#SVGID_00000151518484383001426110000001131224974284419717_);}
	.st6{fill-rule:evenodd;clip-rule:evenodd;fill:url(#SVGID_00000180364304052312426160000010758512009493273246_);}
	.st7{fill:url(#SVGID_00000182516686143027269060000017056872879967926204_);}
	.st8{fill:url(#SVGID_00000181066675148808828680000000896183274866052229_);}
	.st9{fill:#231F20;}
	.st10{fill:#3F3F3F;}
	.st11{clip-path:url(#SVGID_00000126324272197153937950000016571194007051689618_);}
	.st12{clip-path:url(#SVGID_00000083809884634710562020000012249270886283367072_);}
	.st13{clip-path:url(#SVGID_00000060709121267029712830000011711909035775152303_);}
	.st14{clip-path:url(#SVGID_00000099653027087675014650000001819777184041320068_);}
	.st15{fill:#DBDBDB;}
	.st16{clip-path:url(#SVGID_00000086692924363547135210000012546992165249494201_);}
	.st17{fill:#E2E2E2;}
	.st18{clip-path:url(#SVGID_00000044159477286787338800000014041326635651833755_);}
	.st19{fill:#BFBFBF;}
	.st20{clip-path:url(#SVGID_00000097480331788930795240000006013773711559909556_);}
	.st21{fill:#D0D0D0;}
	.st22{clip-path:url(#SVGID_00000109021318567248335460000007316197177155024806_);}
	.st23{clip-path:url(#SVGID_00000158011616599116958410000009647244761321866127_);}
	.st24{clip-path:url(#SVGID_00000096018820773935301970000014865536320816947333_);}
	.st25{clip-path:url(#SVGID_00000088123661368128622360000015043616945295564685_);}
	.st26{clip-path:url(#SVGID_00000028291244929594138940000009691728629255694479_);}
	.st27{clip-path:url(#SVGID_00000022533627015041584680000008877900302203514263_);}
	.st28{clip-path:url(#SVGID_00000154405741760582787000000000275861538978650290_);}
	.st29{clip-path:url(#SVGID_00000147187475804937298710000015884972241019080376_);}
	.st30{clip-path:url(#SVGID_00000105425447963090636610000007553363140738495647_);}
	.st31{clip-path:url(#SVGID_00000121243905169564714700000006866472722684220036_);}
	.st32{clip-path:url(#SVGID_00000098211945499529988850000008444234850529771673_);}
	.st33{clip-path:url(#SVGID_00000101816800396351190470000004746271815896232610_);}
	.st34{clip-path:url(#SVGID_00000136410835817034699540000000202772288846527630_);}
	.st35{clip-path:url(#SVGID_00000183932758790667541830000014797107744685267075_);}
	.st36{clip-path:url(#SVGID_00000094604128725827437690000013585220801429865657_);}
	.st37{clip-path:url(#SVGID_00000131344480272037300540000000193703132192800929_);}
	.st38{clip-path:url(#SVGID_00000138542495557758592530000003024140488097922960_);}
	.st39{clip-path:url(#SVGID_00000150785597520163557710000003613003532719412153_);}
	.st40{clip-path:url(#SVGID_00000083775788533379276260000009166864940974461352_);}
	.st41{clip-path:url(#SVGID_00000161624166466151637220000017294651676475920057_);}
	.st42{clip-path:url(#SVGID_00000022555361108581883760000001952128798904696467_);}
	.st43{clip-path:url(#SVGID_00000016772235304591866470000011237752338783897784_);}
	.st44{clip-path:url(#SVGID_00000176757974865707073050000008047555505143004570_);}
	.st45{clip-path:url(#SVGID_00000098909244967156629800000006765120100032121728_);}
	.st46{clip-path:url(#SVGID_00000117654529592843575360000005752776809392805545_);}
	.st47{clip-path:url(#SVGID_00000062884474869144452120000003715037042668980662_);}
	.st48{clip-path:url(#SVGID_00000134972076322857913940000009369506624900733596_);}
	.st49{clip-path:url(#SVGID_00000147209283105859428800000000743675073350511523_);}
	.st50{clip-path:url(#SVGID_00000103950193132789693390000011129729406155395772_);}
	
		.st51{clip-path:url(#SVGID_00000160906839560806714890000014946933304263877281_);fill:none;stroke:#666666;stroke-width:68.1492;stroke-miterlimit:10;}
	.st52{fill:#B7B7B7;}
	.st53{fill:#C9C9C9;}
	.st54{fill:#545454;}
	.st55{fill:#B6B6B6;}
	.st56{fill-rule:evenodd;clip-rule:evenodd;fill:url(#SVGID_00000075880204168859528550000011959653771547841434_);}
	.st57{fill-rule:evenodd;clip-rule:evenodd;fill:url(#SVGID_00000117666609915930830660000009945134613883447429_);}
	.st58{fill-rule:evenodd;clip-rule:evenodd;fill:url(#SVGID_00000093173836362740174100000015107456874340707467_);}
	.st59{fill-rule:evenodd;clip-rule:evenodd;fill:url(#SVGID_00000138572557752086437630000000958371468156516031_);}
	.st60{fill-rule:evenodd;clip-rule:evenodd;fill:url(#SVGID_00000067914360363903481040000010866565288781916311_);}
	.st61{fill-rule:evenodd;clip-rule:evenodd;fill:url(#SVGID_00000040555232305571148160000012866106321915006342_);}
	.st62{fill-rule:evenodd;clip-rule:evenodd;fill:url(#SVGID_00000140722477819845151020000005213718420753537205_);}
	.st63{fill:url(#SVGID_00000152953774013675196850000004455811545819521445_);}
	.st64{fill:url(#SVGID_00000172403991993567187230000002553986272871497911_);}
	.st65{clip-path:url(#SVGID_00000074439424254447196430000001431674928609829817_);}
	.st66{clip-path:url(#SVGID_00000131331469155548413550000010963447957028191388_);}
	.st67{clip-path:url(#SVGID_00000101072681847222347910000007179746350479164804_);}
	.st68{clip-path:url(#SVGID_00000165234395974656475250000016595212830026905513_);}
	.st69{clip-path:url(#SVGID_00000062878743101633760840000012676175273675817641_);}
	.st70{clip-path:url(#SVGID_00000116930466253368177240000017160083702272717459_);}
	.st71{clip-path:url(#SVGID_00000151513613489739923730000007293029661435037074_);}
	.st72{clip-path:url(#SVGID_00000165221712731934737570000018130735331820323498_);}
	.st73{clip-path:url(#SVGID_00000060731579097929280990000003788504452007383473_);}
	.st74{clip-path:url(#SVGID_00000005250008952933038040000009275580758664369311_);}
	.st75{clip-path:url(#SVGID_00000112623425312676425460000016069516358161566653_);}
	.st76{clip-path:url(#SVGID_00000108304969240452916530000005326733003796766359_);}
	.st77{clip-path:url(#SVGID_00000093889952843210898370000004379294794447649664_);}
	.st78{clip-path:url(#SVGID_00000000206857265999835930000014013718723949593501_);}
	.st79{clip-path:url(#SVGID_00000117660464239334051550000005653174173579740804_);}
	.st80{clip-path:url(#SVGID_00000171700392467558471140000006018715930541926044_);}
	.st81{clip-path:url(#SVGID_00000168109289311447770450000009476363191355772564_);}
	.st82{clip-path:url(#SVGID_00000021825344126160382650000002911475041791002555_);}
	.st83{clip-path:url(#SVGID_00000068679768713611277870000016281278592424369308_);}
	.st84{clip-path:url(#SVGID_00000101068458978120203960000002294417786213473461_);}
	.st85{clip-path:url(#SVGID_00000172432758088524421620000000277039412166614450_);}
	.st86{clip-path:url(#SVGID_00000089557014458333232060000008653239630630660024_);}
	.st87{clip-path:url(#SVGID_00000152225613865845399600000007677928020762647702_);}
	.st88{clip-path:url(#SVGID_00000066477492156408816610000009436700001527599279_);}
	.st89{clip-path:url(#SVGID_00000119822059315241217040000013778507713519359925_);}
	.st90{clip-path:url(#SVGID_00000178169970843663575660000004071347937542802823_);}
	.st91{clip-path:url(#SVGID_00000030468660247867150600000010709045826865536674_);}
	.st92{clip-path:url(#SVGID_00000065039577672270698330000010597847052864328873_);}
	.st93{clip-path:url(#SVGID_00000115483176571487437060000008722534195939295641_);}
	.st94{clip-path:url(#SVGID_00000085222844884181981090000007728647475939196034_);}
	.st95{clip-path:url(#SVGID_00000042716429625527639120000004033362475220480187_);}
	.st96{clip-path:url(#SVGID_00000170267896262052423130000008361953804551186820_);}
	.st97{clip-path:url(#SVGID_00000166643035680368198240000017622989310314237077_);}
	.st98{clip-path:url(#SVGID_00000062171323394628476760000005974236316486355857_);}
	.st99{clip-path:url(#SVGID_00000065796473495863689040000011004883894621170827_);}
	.st100{clip-path:url(#SVGID_00000171718008195826659560000005841291040589122976_);}
	
		.st101{clip-path:url(#SVGID_00000084515983733122341930000010307235172111972243_);fill:none;stroke:#666666;stroke-width:2.5571;stroke-miterlimit:10;}
</style>
<g>
	<g>
		<defs>
			<rect id="SVGID_00000095331602127659522360000014285705539647858873_" x="109.3" y="20.9" width="11.7" height="13.4"/>
		</defs>
		<clipPath id="SVGID_00000163033803183602028290000013282759565636031909_">
			<use xlink:href="#SVGID_00000095331602127659522360000014285705539647858873_"  style="overflow:visible;"/>
		</clipPath>
		<g style="clip-path:url(#SVGID_00000163033803183602028290000013282759565636031909_);">
			<g>
				<g>
					<defs>
						<rect id="SVGID_00000074429198997686310600000000092909826326402456_" x="108.8" y="20.9" width="14.5" height="17.5"/>
					</defs>
					<clipPath id="SVGID_00000034772826826933007230000017068321386176769926_">
						<use xlink:href="#SVGID_00000074429198997686310600000000092909826326402456_"  style="overflow:visible;"/>
					</clipPath>
					<g style="clip-path:url(#SVGID_00000034772826826933007230000017068321386176769926_);">
						<g>
							<defs>
								<path id="SVGID_00000024679838835467300130000005093043443941424530_" d="M120.8,20.9l-11.5,11.4
									C109.3,32.3,122.9,41.3,120.8,20.9"/>
							</defs>
							<clipPath id="SVGID_00000068662167845859019310000003805913688081698227_">
								<use xlink:href="#SVGID_00000024679838835467300130000005093043443941424530_"  style="overflow:visible;"/>
							</clipPath>
							<g style="clip-path:url(#SVGID_00000068662167845859019310000003805913688081698227_);">
								<g>
									<defs>
										<rect id="SVGID_00000137130512153982123210000009468059097128956829_" x="108.8" y="20.9" width="12.2" height="13.7"/>
									</defs>
									<clipPath id="SVGID_00000128471371793917730820000013142847129855297417_">
										<use xlink:href="#SVGID_00000137130512153982123210000009468059097128956829_"  style="overflow:visible;"/>
									</clipPath>
									<g style="clip-path:url(#SVGID_00000128471371793917730820000013142847129855297417_);">
										<rect x="105.5" y="17.1" class="st15" width="19.3" height="21"/>
									</g>
								</g>
							</g>
						</g>
					</g>
				</g>
			</g>
		</g>
	</g>
	<g>
		<defs>
			<path id="SVGID_00000124866126901968966680000016971935243431255972_" d="M95.3,46l11.2-11.7C106.5,34.3,93.3,25.2,95.3,46"/>
		</defs>
		<clipPath id="SVGID_00000165211799691748646010000011247858779177657237_">
			<use xlink:href="#SVGID_00000124866126901968966680000016971935243431255972_"  style="overflow:visible;"/>
		</clipPath>
		<g style="clip-path:url(#SVGID_00000165211799691748646010000011247858779177657237_);">
			<rect x="91.3" y="28.5" class="st17" width="19" height="21.3"/>
		</g>
	</g>
	<g>
		<defs>
			<path id="SVGID_00000175282635878573969170000000415526724185413268_" d="M120.9,45.7l-11.4-11.4
				C109.5,34.3,100.6,47.8,120.9,45.7"/>
		</defs>
		<clipPath id="SVGID_00000104703236080261023490000004434002010964715939_">
			<use xlink:href="#SVGID_00000175282635878573969170000000415526724185413268_"  style="overflow:visible;"/>
		</clipPath>
		<g style="clip-path:url(#SVGID_00000104703236080261023490000004434002010964715939_);">
			<rect x="103.7" y="30.5" class="st19" width="20.9" height="19.2"/>
		</g>
	</g>
	<g>
		<defs>
			<path id="SVGID_00000173858866760613430250000010725157930232128942_" d="M96,20.8l11.4,11.4C107.3,32.3,116.2,18.8,96,20.8"/>
		</defs>
		<clipPath id="SVGID_00000043449608582323554110000003276666716606047892_">
			<use xlink:href="#SVGID_00000173858866760613430250000010725157930232128942_"  style="overflow:visible;"/>
		</clipPath>
		<g style="clip-path:url(#SVGID_00000043449608582323554110000003276666716606047892_);">
			<rect x="92.2" y="16.8" class="st21" width="20.9" height="19.2"/>
		</g>
	</g>
	<g>
		<defs>
			<path id="SVGID_00000072263020710228937830000007048649285107499182_" d="M5.1,94c0.9-0.4,1.5-1.4,1.5-2.4c0-1.8-1.5-2.9-3.8-2.9
				H0v11.4h3.5c2.6,0,4.1-1.2,4.1-3.3C7.6,95.4,6.5,94.2,5.1,94z M1.1,89.6h1.8c1.2,0,2.7,0.3,2.7,1.9c0,1.4-1.3,2-2.5,2H1.1V89.6z
				 M3.5,99.1H1.1v-4.5h2.2c1.2,0,3.2,0.5,3.2,2.3C6.5,98.9,4.4,99.1,3.5,99.1z"/>
		</defs>
		<clipPath id="SVGID_00000118391738873410721590000000629182888335945626_">
			<use xlink:href="#SVGID_00000072263020710228937830000007048649285107499182_"  style="overflow:visible;"/>
		</clipPath>
		<g style="clip-path:url(#SVGID_00000118391738873410721590000000629182888335945626_);">
			<rect x="-3.8" y="84.9" width="15.2" height="19"/>
		</g>
	</g>
	<g>
		<defs>
			<polyline id="SVGID_00000052799097003078828300000015542328525558966963_" points="47.7,88.7 46.8,88.7 46.8,93.6 40.7,93.6 
				40.7,88.7 39.6,88.7 39.6,100.1 40.7,100.1 40.7,94.6 46.8,94.6 46.8,100.1 47.9,100.1 47.9,88.7 47.7,88.7 			"/>
		</defs>
		<clipPath id="SVGID_00000181786403560406323590000017336111421490392730_">
			<use xlink:href="#SVGID_00000052799097003078828300000015542328525558966963_"  style="overflow:visible;"/>
		</clipPath>
		<g style="clip-path:url(#SVGID_00000181786403560406323590000017336111421490392730_);">
			<rect x="35.8" y="84.9" width="16" height="19"/>
		</g>
	</g>
	<g>
		<defs>
			<polyline id="SVGID_00000022561079023957121830000005585140155773117073_" points="59.6,88.7 53.3,88.7 53.3,100.1 60.1,100.1 
				60.1,99.1 54.4,99.1 54.4,94.5 59.3,94.5 59.3,93.5 54.4,93.5 54.4,89.6 59.8,89.6 59.8,88.7 59.6,88.7 			"/>
		</defs>
		<clipPath id="SVGID_00000010288402100527176490000009049646825258369425_">
			<use xlink:href="#SVGID_00000022561079023957121830000005585140155773117073_"  style="overflow:visible;"/>
		</clipPath>
		<g style="clip-path:url(#SVGID_00000010288402100527176490000009049646825258369425_);">
			<rect x="49.5" y="84.9" width="14.5" height="19"/>
		</g>
	</g>
	<g>
		<defs>
			<path id="SVGID_00000083773172292781885910000006709571898984134283_" d="M67.6,95.2h0.1c2.5,0,4.2-1.4,4.2-3.3
				c0-2-1.7-3.2-4.1-3.2h-3.2v11.4h1.2v-5c0.6,0.6,4.9,5,4.9,5h1.5C72.3,100.1,68.1,95.8,67.6,95.2z M65.9,89.6h2
				c1.3,0,2.9,0.6,2.9,2.3c0,1.7-1.6,2.4-3,2.4h-1.8V89.6z"/>
		</defs>
		<clipPath id="SVGID_00000066511166182222696040000018206719016494875542_">
			<use xlink:href="#SVGID_00000083773172292781885910000006709571898984134283_"  style="overflow:visible;"/>
		</clipPath>
		<g style="clip-path:url(#SVGID_00000066511166182222696040000018206719016494875542_);">
			<rect x="60.9" y="84.9" width="15.2" height="19"/>
		</g>
	</g>
	<g>
		<defs>
			<path id="SVGID_00000085238123161476421260000002208492529177138053_" d="M80.2,88.7h-0.7l-4.2,12.2h1.1l1.5-4.4h3.8l1.5,4.4h1.1
				L80.2,88.7z M78.3,95.4c0.1-0.4,1.3-3.8,1.5-4.6c0.3,0.8,1.4,4.1,1.6,4.6H78.3z"/>
		</defs>
		<clipPath id="SVGID_00000105420550127292523670000002801047331436270770_">
			<use xlink:href="#SVGID_00000085238123161476421260000002208492529177138053_"  style="overflow:visible;"/>
		</clipPath>
		<g style="clip-path:url(#SVGID_00000105420550127292523670000002801047331436270770_);">
			<rect x="71.5" y="84.9" width="16.7" height="19.8"/>
		</g>
	</g>
	<g>
		<defs>
			<rect id="SVGID_00000072261495568650812480000003082393489989706383_" x="86.5" y="88.7" width="20.6" height="12"/>
		</defs>
		<clipPath id="SVGID_00000008858435482849365830000000051111420203119253_">
			<use xlink:href="#SVGID_00000072261495568650812480000003082393489989706383_"  style="overflow:visible;"/>
		</clipPath>
		<g style="clip-path:url(#SVGID_00000008858435482849365830000000051111420203119253_);">
			<g>
				<g>
					<defs>
						<rect id="SVGID_00000113352355706329770130000010208948666554484123_" x="86" y="88.7" width="21.3" height="12.2"/>
					</defs>
					<clipPath id="SVGID_00000150104963623452019760000013697981572572173479_">
						<use xlink:href="#SVGID_00000113352355706329770130000010208948666554484123_"  style="overflow:visible;"/>
					</clipPath>
					<g style="clip-path:url(#SVGID_00000150104963623452019760000013697981572572173479_);">
						<defs>
							<rect id="SVGID_00000121968247833290700960000017543750286564778626_" x="86" y="88.4" width="8.3" height="12.9"/>
						</defs>
						<clipPath id="SVGID_00000029748954253116975240000015454647036354687669_">
							<use xlink:href="#SVGID_00000121968247833290700960000017543750286564778626_"  style="overflow:visible;"/>
						</clipPath>
						<g style="clip-path:url(#SVGID_00000029748954253116975240000015454647036354687669_);">
							<g>
								<defs>
									<polyline id="SVGID_00000175322446921088984550000010470235624239560380_" points="93.2,88.9 86.5,88.9 86.5,89.9 
										89.4,89.9 89.4,100.6 90.5,100.6 90.5,89.9 93.4,89.9 93.4,88.9 93.2,88.9 									"/>
								</defs>
								<clipPath id="SVGID_00000163755556476171632130000004833901946924904100_">
									<use xlink:href="#SVGID_00000175322446921088984550000010470235624239560380_"  style="overflow:visible;"/>
								</clipPath>
								<g style="clip-path:url(#SVGID_00000163755556476171632130000004833901946924904100_);">
									<g>
										<defs>
											<rect id="SVGID_00000062890071577910160280000011659038429158508185_" x="86" y="88.7" width="21.3" height="12.2"/>
										</defs>
										<clipPath id="SVGID_00000056430063295149229930000013460323922502238651_">
											<use xlink:href="#SVGID_00000062890071577910160280000011659038429158508185_"  style="overflow:visible;"/>
										</clipPath>
										<g style="clip-path:url(#SVGID_00000056430063295149229930000013460323922502238651_);">
											<rect x="82.7" y="85.1" width="14.5" height="19.3"/>
										</g>
									</g>
								</g>
							</g>
							<g>
								<defs>
									<path id="SVGID_00000103263621814068196340000013092235699375781253_" d="M101.3,88.7c-3.3-0.1-6.1,2.5-6.3,5.8
										c-0.1,3.3,2.5,6.1,5.8,6.3s6.1-2.5,6.3-5.8c0-0.1,0-0.2,0-0.2c0.1-3.2-2.5-5.9-5.7-6C101.4,88.7,101.3,88.7,101.3,88.7z
										 M101.3,99.8c-2.8-0.2-4.9-2.5-4.7-5.3c0.1-2.5,2.2-4.6,4.7-4.7c2.7,0,4.7,2.2,4.7,5C106,97.6,104,99.8,101.3,99.8
										L101.3,99.8z"/>
								</defs>
								<clipPath id="SVGID_00000093861156632895786850000008138739360274124209_">
									<use xlink:href="#SVGID_00000103263621814068196340000013092235699375781253_"  style="overflow:visible;"/>
								</clipPath>
								<g style="clip-path:url(#SVGID_00000093861156632895786850000008138739360274124209_);">
									<g>
										<defs>
											<rect id="SVGID_00000054949904268134961740000005518185472955616943_" x="86" y="88.7" width="21.3" height="12.2"/>
										</defs>
										<clipPath id="SVGID_00000032623052308201637440000009373589222989567621_">
											<use xlink:href="#SVGID_00000054949904268134961740000005518185472955616943_"  style="overflow:visible;"/>
										</clipPath>
										<g style="clip-path:url(#SVGID_00000032623052308201637440000009373589222989567621_);">
											<rect x="91.7" y="84.9" width="19.2" height="19.7"/>
										</g>
									</g>
								</g>
							</g>
						</g>
					</g>
				</g>
			</g>
		</g>
	</g>
	<g>
		<defs>
			<path id="SVGID_00000047032004118205838660000007234731350344348032_" d="M119.3,88.7h-0.9v9.5c0,0.1,0,0.1,0,0.2l-6.9-9.7h-1.1
				v11.4h1.1v-9.5c0,0,0-0.1,0-0.2c0.7,0.9,7,9.7,7,9.7h1.1V88.7H119.3"/>
		</defs>
		<clipPath id="SVGID_00000101797863941607206190000013669242015406864797_">
			<use xlink:href="#SVGID_00000047032004118205838660000007234731350344348032_"  style="overflow:visible;"/>
		</clipPath>
		<g style="clip-path:url(#SVGID_00000101797863941607206190000013669242015406864797_);">
			<rect x="106.5" y="84.9" width="16.7" height="19"/>
		</g>
	</g>
	<g>
		<defs>
			<polyline id="SVGID_00000095300949977747155360000005587832693683227063_" points="2.6,23.3 2.6,32.2 12.2,32.2 12.2,34.5 
				2.6,34.5 2.6,46 0,46 0,20.9 13.7,20.9 13.7,23.3 2.6,23.3 			"/>
		</defs>
		<clipPath id="SVGID_00000017515536672821305440000003490033469607005318_">
			<use xlink:href="#SVGID_00000095300949977747155360000005587832693683227063_"  style="overflow:visible;"/>
		</clipPath>
		<g style="clip-path:url(#SVGID_00000017515536672821305440000003490033469607005318_);">
			<rect x="-3.8" y="17.1" width="21.3" height="32.7"/>
		</g>
	</g>
	<g>
		<defs>
			<path id="SVGID_00000090271740538540086330000008012803762138108835_" d="M64.4,45.6v-3.9c-1.8,2.7-4.9,4.3-8.1,4.3
				c-5,0-8.3-3.7-8.3-8.8V20.9h2.7v16.3c0,3.9,2.3,6.6,6,6.6c4.7,0,6.8-3.9,7.8-5.4V20.9H67v24.7H64.4"/>
		</defs>
		<clipPath id="SVGID_00000170278261026850985980000004306369838348278951_">
			<use xlink:href="#SVGID_00000090271740538540086330000008012803762138108835_"  style="overflow:visible;"/>
		</clipPath>
		<g style="clip-path:url(#SVGID_00000170278261026850985980000004306369838348278951_);">
			<rect x="44.1" y="17.1" width="26.6" height="32.7"/>
		</g>
	</g>
	<g>
		<defs>
			<path id="SVGID_00000082364450673074056800000004827895060156385442_" d="M89.5,46c-2.2,0-3-1.1-4-2.4l-5.9-8.4h-3v10.4h-2.7
				V20.9h6c5.5,0,8.7,2.8,8.7,7.1c0,3.9-2.9,6.2-6.1,6.9l5.4,7.5c0.8,1,1.4,1.6,2.2,1.6c0.7,0,1.3-0.3,1.7-0.8l1,1
				C92.2,45.3,90.9,46.1,89.5,46z M79.6,23.2h-3v10h2.9c3,0,6.4-1.3,6.4-5.2C85.8,24.8,83.7,23.2,79.6,23.2z"/>
		</defs>
		<clipPath id="SVGID_00000033328953368967421180000001303797770446571158_">
			<use xlink:href="#SVGID_00000082364450673074056800000004827895060156385442_"  style="overflow:visible;"/>
		</clipPath>
		<g style="clip-path:url(#SVGID_00000033328953368967421180000001303797770446571158_);">
			<rect x="70" y="17.1" width="26.6" height="32.7"/>
		</g>
	</g>
	<g>
		<defs>
			<path id="SVGID_00000078015704930254222080000005759010681654754707_" d="M30.4,46.8c-7.9,0-13.7-6-13.7-13.3s5.8-13.3,13.7-13.3
				s13.7,6,13.7,13.3S38.3,46.8,30.4,46.8z M30.4,22.4c-6-0.1-10.9,4.7-11,10.8c0,0.1,0,0.2,0,0.3c0,6.1,4.9,11,11,11s11-4.9,11-11
				c0.1-6-4.7-10.9-10.7-11C30.6,22.4,30.5,22.4,30.4,22.4z"/>
		</defs>
		<clipPath id="SVGID_00000130636980900670057100000012267482908182846138_">
			<use xlink:href="#SVGID_00000078015704930254222080000005759010681654754707_"  style="overflow:visible;"/>
		</clipPath>
		<g style="clip-path:url(#SVGID_00000130636980900670057100000012267482908182846138_);">
			<rect x="12.9" y="16.4" width="35" height="34.2"/>
		</g>
	</g>
	<g>
		<defs>
			<path id="SVGID_00000038409244888391200710000014020911554284208564_" d="M6.3,67.1H2.6V78H0V52.9h6.2c5.2,0,8.3,2.7,8.3,7.1
				C14.5,65,10.1,67.1,6.3,67.1z M6,55.2H2.6V65h3.2c2.8,0,5.9-1.3,5.9-5.1C11.8,56.8,9.8,55.2,6,55.2z"/>
		</defs>
		<clipPath id="SVGID_00000054223745150577013850000016982900326643719334_">
			<use xlink:href="#SVGID_00000038409244888391200710000014020911554284208564_"  style="overflow:visible;"/>
		</clipPath>
		<g style="clip-path:url(#SVGID_00000054223745150577013850000016982900326643719334_);">
			<rect x="-3.8" y="49.1" width="22.1" height="32.7"/>
		</g>
	</g>
	<g>
		<defs>
			<path id="SVGID_00000034781481181019044560000009750189881449571224_" d="M30.4,78.8c-7.9,0-13.7-6-13.7-13.3s5.8-13.3,13.7-13.3
				s13.7,6,13.7,13.3S38.3,78.8,30.4,78.8z M30.4,54.4c-6.1,0-11,4.9-11.1,11s4.9,11,11,11.1c6.1,0,11-4.9,11.1-11c0,0,0,0,0,0
				c0.1-6-4.7-10.9-10.7-11C30.6,54.4,30.5,54.4,30.4,54.4z"/>
		</defs>
		<clipPath id="SVGID_00000090984765811189768960000005614762071178391200_">
			<use xlink:href="#SVGID_00000034781481181019044560000009750189881449571224_"  style="overflow:visible;"/>
		</clipPath>
		<g style="clip-path:url(#SVGID_00000090984765811189768960000005614762071178391200_);">
			<rect x="12.9" y="48.3" width="35" height="34.2"/>
		</g>
	</g>
	<g>
		<defs>
			<rect id="SVGID_00000139272127357975447650000012026585120863158702_" x="49.5" y="52.9" width="2.3" height="25.1"/>
		</defs>
		<clipPath id="SVGID_00000165206116686497320080000009038036535764176021_">
			<use xlink:href="#SVGID_00000139272127357975447650000012026585120863158702_"  style="overflow:visible;"/>
		</clipPath>
		<g style="clip-path:url(#SVGID_00000165206116686497320080000009038036535764176021_);">
			<rect x="45.7" y="49.1" width="9.9" height="32.7"/>
		</g>
	</g>
	<g>
		<defs>
			<polyline id="SVGID_00000142171313295414277310000003193191363669584318_" points="78.1,78 78.1,72.8 62.7,57.4 62.7,78 60.1,78 
				60.1,52.9 61.7,52.9 78.1,69.2 78.1,52.9 80.7,52.9 80.7,78 78.1,78 			"/>
		</defs>
		<clipPath id="SVGID_00000010993710710726761360000006647875636911789986_">
			<use xlink:href="#SVGID_00000142171313295414277310000003193191363669584318_"  style="overflow:visible;"/>
		</clipPath>
		<g style="clip-path:url(#SVGID_00000010993710710726761360000006647875636911789986_);">
			<rect x="56.3" y="49.1" width="28.2" height="32.7"/>
		</g>
	</g>
	<g>
		<defs>
			<polyline id="SVGID_00000026133549677235853370000011787650704125182094_" points="96.1,55.2 96.1,78 93.4,78 93.4,55.2 
				84.5,55.2 84.5,52.9 105,52.9 105,55.2 96.1,55.2 			"/>
		</defs>
		<clipPath id="SVGID_00000093883797568118040040000001544679528058117762_">
			<use xlink:href="#SVGID_00000026133549677235853370000011787650704125182094_"  style="overflow:visible;"/>
		</clipPath>
		<g style="clip-path:url(#SVGID_00000093883797568118040040000001544679528058117762_);">
			<rect x="80.7" y="49.1" width="28.2" height="32.7"/>
		</g>
	</g>
	<g>
		<defs>
			<path id="SVGID_00000066515607092852095080000011557052532837240964_" d="M112.5,78.8c-2.3,0-4.6-0.7-6.7-1.8v-2.9
				c1.1,0.7,4.1,2.4,6.7,2.4c2.9,0,5.2-1.5,5.2-4.2c0-2-2.1-3.7-3.6-4.7l-3.8-2.5c-1.9-1.2-4.2-3.1-4.2-6.3c0-4.3,3.1-6.6,7-6.6
				c2,0,3.9,0.5,5.7,1.5v2.7c-1.7-1.1-3.6-1.7-5.7-1.8c-2.7,0-4.5,1.7-4.5,4c0,2.1,1.7,3.4,3.4,4.5l3.6,2.5c1.8,1.2,4.6,3.2,4.6,6.7
				C120.2,76.2,117,78.8,112.5,78.8"/>
		</defs>
		<clipPath id="SVGID_00000178183008006279831020000009545509060383749012_">
			<use xlink:href="#SVGID_00000066515607092852095080000011557052532837240964_"  style="overflow:visible;"/>
		</clipPath>
		<g style="clip-path:url(#SVGID_00000178183008006279831020000009545509060383749012_);">
			<rect x="102" y="48.3" width="22.1" height="34.2"/>
		</g>
	</g>
	<g>
		<g>
			<defs>
				<rect id="SVGID_00000165920494640493614910000007807268279832592523_" x="9.9" y="88.7" width="25.1" height="12.2"/>
			</defs>
			<clipPath id="SVGID_00000095336460767747399180000007203801875615344308_">
				<use xlink:href="#SVGID_00000165920494640493614910000007807268279832592523_"  style="overflow:visible;"/>
			</clipPath>
			<g style="clip-path:url(#SVGID_00000095336460767747399180000007203801875615344308_);">
				<g>
					<defs>
						<path id="SVGID_00000018236004205966599900000014064280369158203293_" d="M19,88.9h-0.9l-3.5,5.1c-0.3-0.4-3.5-5.1-3.5-5.1
							H9.9c0,0,4.1,6.1,4.2,6.2v5.5h1.1v-5.5c0.1-0.1,4.2-6.2,4.2-6.2L19,88.9"/>
					</defs>
					<clipPath id="SVGID_00000107551386149030638680000005583444122805853113_">
						<use xlink:href="#SVGID_00000018236004205966599900000014064280369158203293_"  style="overflow:visible;"/>
					</clipPath>
					<g style="clip-path:url(#SVGID_00000107551386149030638680000005583444122805853113_);">
						<g>
							<defs>
								<rect id="SVGID_00000083767580660290282550000000744166874061562277_" x="9.9" y="88.7" width="25.1" height="12.2"/>
							</defs>
							<clipPath id="SVGID_00000062181748347729358930000017501486531361975476_">
								<use xlink:href="#SVGID_00000083767580660290282550000000744166874061562277_"  style="overflow:visible;"/>
							</clipPath>
							<g style="clip-path:url(#SVGID_00000062181748347729358930000017501486531361975476_);">
								<rect x="6.1" y="85.1" width="17" height="19.3"/>
							</g>
						</g>
					</g>
				</g>
				<g>
					<defs>
						<path id="SVGID_00000068679850360014213600000015603971413673011373_" d="M28.2,91.7c0,1.9,1.4,2.7,2.7,3.3
							c1.3,0.7,2.5,1.3,2.5,2.8c0,1.1-1,2-2.1,2c0,0,0,0-0.1,0c-0.9,0-1.7-0.4-2.4-1l-0.1-0.1L28,99.4l0.1,0.1
							c0.8,0.8,1.9,1.2,3.1,1.3c1.8,0.1,3.2-1.3,3.3-3.1c0-2.1-1.6-2.9-2.8-3.6l-0.1-0.1c-1.2-0.6-2.3-1.2-2.3-2.5
							c0-1,0.7-1.8,1.7-1.9c0.1,0,0.1,0,0.2,0c0.8-0.1,1.7,0.3,2.2,1l0.1,0.1l0.8-0.7L34.1,90c-0.7-0.9-1.8-1.3-2.9-1.3
							c-1.6-0.1-2.9,1.2-3,2.8C28.2,91.6,28.2,91.6,28.2,91.7"/>
					</defs>
					<clipPath id="SVGID_00000114780503844137317340000005595074984727524015_">
						<use xlink:href="#SVGID_00000068679850360014213600000015603971413673011373_"  style="overflow:visible;"/>
					</clipPath>
					<g style="clip-path:url(#SVGID_00000114780503844137317340000005595074984727524015_);">
						<g>
							<defs>
								<rect id="SVGID_00000017501049447551434830000014240921301796591527_" x="9.9" y="88.7" width="25.1" height="12.2"/>
							</defs>
							<clipPath id="SVGID_00000049202441732764189650000005855643167525052047_">
								<use xlink:href="#SVGID_00000017501049447551434830000014240921301796591527_"  style="overflow:visible;"/>
							</clipPath>
							<g style="clip-path:url(#SVGID_00000049202441732764189650000005855643167525052047_);">
								<rect x="24.2" y="84.9" width="14.1" height="19.7"/>
							</g>
						</g>
					</g>
				</g>
			</g>
		</g>
	</g>
	<g>
		<defs>
			<path id="SVGID_00000113349708559891227130000009535050816324461468_" d="M101,100.7c-3.5,0-6.1-2.7-6.1-6s2.6-6,6.1-6
				c3.5,0,6.1,2.7,6.1,6S104.5,100.7,101,100.7z M101,89.8c-2.7,0-4.9,2.2-5,4.9s2.2,4.9,4.9,5c2.7,0,4.9-2.2,5-4.9c0,0,0,0,0,0
				c0-2.7-2.1-4.9-4.8-4.9C101,89.8,101,89.8,101,89.8z"/>
		</defs>
		<clipPath id="SVGID_00000163036369555631598010000011043221640891980688_">
			<use xlink:href="#SVGID_00000113349708559891227130000009535050816324461468_"  style="overflow:visible;"/>
		</clipPath>
		<g style="clip-path:url(#SVGID_00000163036369555631598010000011043221640891980688_);">
			<rect x="93.1" y="87" width="15.7" height="15.3"/>
		</g>
	</g>
</g>
</svg>
