<?xml version="1.0" encoding="utf-8"?>
<!-- Generator: Adobe Illustrator 27.0.0, SVG Export Plug-In . SVG Version: 6.00 Build 0)  -->
<svg version="1.1" id="Layer_1" xmlns="http://www.w3.org/2000/svg" xmlns:xlink="http://www.w3.org/1999/xlink" x="0px" y="0px"
	 viewBox="0 0 121 121" style="enable-background:new 0 0 121 121;" xml:space="preserve">
<style type="text/css">
	.st0{fill-rule:evenodd;clip-rule:evenodd;fill:url(#SVGID_1_);}
	.st1{fill-rule:evenodd;clip-rule:evenodd;fill:url(#SVGID_00000108994575651880286790000008467001636535093946_);}
	.st2{fill-rule:evenodd;clip-rule:evenodd;fill:url(#SVGID_00000001644776757522446820000008480985631196470418_);}
	.st3{fill-rule:evenodd;clip-rule:evenodd;fill:url(#SVGID_00000072971474316367358970000007169888571826105753_);}
	.st4{fill-rule:evenodd;clip-rule:evenodd;fill:url(#SVGID_00000098222095585061428400000004165793009346039740_);}
	.st5{fill-rule:evenodd;clip-rule:evenodd;fill:url(#SVGID_00000051385635877716014590000007609785527331748751_);}
	.st6{fill-rule:evenodd;clip-rule:evenodd;fill:url(#SVGID_00000096032575687046476020000005493684838206046630_);}
	.st7{fill:url(#SVGID_00000142167913233581782200000005428450563683729306_);}
	.st8{fill:url(#SVGID_00000174590337971793381510000000400106417947857835_);}
	.st9{fill:#231F20;}
	.st10{fill:#3F3F3F;}
	.st11{clip-path:url(#SVGID_00000046297103353092332910000012221680740118475404_);}
	.st12{clip-path:url(#SVGID_00000183223097019831817590000014086400731106801307_);}
	.st13{clip-path:url(#SVGID_00000019670017153601660350000004667793244408017825_);}
	.st14{clip-path:url(#SVGID_00000181054992715022358800000011973912969645185189_);}
	.st15{fill:#DBDBDB;}
	.st16{clip-path:url(#SVGID_00000121237319732685970750000005770880546081237897_);}
	.st17{fill:#E2E2E2;}
	.st18{clip-path:url(#SVGID_00000156562947121780957720000012786772014704393634_);}
	.st19{fill:#BFBFBF;}
	.st20{clip-path:url(#SVGID_00000116924826092333586020000014621281519147526816_);}
	.st21{fill:#D0D0D0;}
	.st22{clip-path:url(#SVGID_00000031199814791521966860000002708819899915588516_);}
	.st23{clip-path:url(#SVGID_00000017481700820714706040000005832901049984292016_);}
	.st24{clip-path:url(#SVGID_00000123443548344514442170000007270716641083092141_);}
	.st25{clip-path:url(#SVGID_00000000932406840893339570000013556522757267215504_);}
	.st26{clip-path:url(#SVGID_00000110465412968300305650000011440078135835691455_);}
	.st27{clip-path:url(#SVGID_00000141441822307085904510000007581385584724977829_);}
	.st28{clip-path:url(#SVGID_00000174575118164343521600000016491408945726004641_);}
	.st29{clip-path:url(#SVGID_00000120531444332588856420000015800337085235970457_);}
	.st30{clip-path:url(#SVGID_00000060031944033852335030000014561641584239954090_);}
	.st31{clip-path:url(#SVGID_00000083787227057144483690000003808060305341663628_);}
	.st32{clip-path:url(#SVGID_00000036210838739205697340000004287170400140234895_);}
	.st33{clip-path:url(#SVGID_00000046333615387840762250000006859403715133348283_);}
	.st34{clip-path:url(#SVGID_00000178165760027048468120000003240987026971266475_);}
	.st35{clip-path:url(#SVGID_00000183239099714391088270000003636814556060768400_);}
	.st36{clip-path:url(#SVGID_00000093898114733628391900000001184657877815735444_);}
	.st37{clip-path:url(#SVGID_00000070101077219033113840000010657412927665611154_);}
	.st38{clip-path:url(#SVGID_00000105397084238472900120000012787916666028958097_);}
	.st39{clip-path:url(#SVGID_00000079453869235606022120000016596862021846295992_);}
	.st40{clip-path:url(#SVGID_00000106833798055365290850000001083866087874830739_);}
	.st41{clip-path:url(#SVGID_00000143605807881532936370000003675942835837727916_);}
	.st42{clip-path:url(#SVGID_00000055699001293407904730000007491235442836397979_);}
	.st43{clip-path:url(#SVGID_00000124157759393632910780000001986809819947519394_);}
	.st44{clip-path:url(#SVGID_00000147178056010735850640000004078570075592370597_);}
	.st45{clip-path:url(#SVGID_00000085934432671726392550000001470912338261253029_);}
	.st46{clip-path:url(#SVGID_00000096025481360696734740000001399862724506407816_);}
	.st47{clip-path:url(#SVGID_00000000183878032266607550000003357928707856248473_);}
	.st48{clip-path:url(#SVGID_00000013906948014738144400000005994159666865579449_);}
	.st49{clip-path:url(#SVGID_00000074401459281994628550000006809129797690102916_);}
	.st50{clip-path:url(#SVGID_00000166651119695353861750000003337434293678356616_);}
	
		.st51{clip-path:url(#SVGID_00000129884148182356719100000005664523412626827437_);fill:none;stroke:#666666;stroke-width:68.1492;stroke-miterlimit:10;}
	.st52{fill:#B7B7B7;}
	.st53{fill:#C9C9C9;}
	.st54{fill:#545454;}
	.st55{fill:#B6B6B6;}
	.st56{fill-rule:evenodd;clip-rule:evenodd;fill:url(#SVGID_00000042006341137474999370000000402926362193227404_);}
	.st57{fill-rule:evenodd;clip-rule:evenodd;fill:url(#SVGID_00000090287189634745019310000008404415736640691335_);}
	.st58{fill-rule:evenodd;clip-rule:evenodd;fill:url(#SVGID_00000085930475797948556020000003925672965179478409_);}
	.st59{fill-rule:evenodd;clip-rule:evenodd;fill:url(#SVGID_00000072966772383783638490000017662339389503330178_);}
	.st60{fill-rule:evenodd;clip-rule:evenodd;fill:url(#SVGID_00000132773567815968176460000010277480289956101546_);}
	.st61{fill-rule:evenodd;clip-rule:evenodd;fill:url(#SVGID_00000114072470517490966810000001246892355781884084_);}
	.st62{fill-rule:evenodd;clip-rule:evenodd;fill:url(#SVGID_00000109017576186553139410000018387919116366223789_);}
	.st63{fill:url(#SVGID_00000156574423242505968270000000939712003806697351_);}
	.st64{fill:url(#SVGID_00000050631986712401664650000012439928858830143928_);}
	.st65{clip-path:url(#SVGID_00000166649514666297105860000002994055504974313616_);}
	.st66{clip-path:url(#SVGID_00000135687142756377210110000015442929620030610817_);}
	.st67{clip-path:url(#SVGID_00000096035060402295084540000003915293719794621845_);}
	.st68{clip-path:url(#SVGID_00000008861607195432241220000011611365066372389566_);}
	.st69{clip-path:url(#SVGID_00000021093828736280647100000004441693964587046826_);}
	.st70{clip-path:url(#SVGID_00000039836096246380763020000016725577094206977938_);}
	.st71{clip-path:url(#SVGID_00000018956949710824666170000007949254354990811010_);}
	.st72{clip-path:url(#SVGID_00000120560959599287851170000006865923776801449612_);}
	.st73{clip-path:url(#SVGID_00000013878867257212180730000014054362492852575110_);}
	.st74{clip-path:url(#SVGID_00000009550648835446103910000003106929474141077920_);}
	.st75{clip-path:url(#SVGID_00000044158901435402625080000009130734869731029905_);}
	.st76{clip-path:url(#SVGID_00000181773036253894284600000006745567621946737822_);}
	.st77{clip-path:url(#SVGID_00000139977491169710382070000002534580246692733858_);}
	.st78{clip-path:url(#SVGID_00000098925169696871711740000013414979890329292683_);}
	.st79{clip-path:url(#SVGID_00000072968505017327530010000009016718823881410183_);}
	.st80{clip-path:url(#SVGID_00000134250767788510040860000014266207238152432008_);}
	.st81{clip-path:url(#SVGID_00000183234748228562385110000014472523768470134918_);}
	.st82{clip-path:url(#SVGID_00000115496814095535336780000011996722379584314795_);}
	.st83{clip-path:url(#SVGID_00000032614673947663824010000009923061650771063688_);}
	.st84{clip-path:url(#SVGID_00000030458811907496109050000000148427791568965287_);}
	.st85{clip-path:url(#SVGID_00000162347046677354163010000016582501287381095091_);}
	.st86{clip-path:url(#SVGID_00000113331809758205487410000001412329823482447795_);}
	.st87{clip-path:url(#SVGID_00000044891658205729633400000017784820451315274385_);}
	.st88{clip-path:url(#SVGID_00000050653180725579008590000016001932396313486240_);}
	.st89{clip-path:url(#SVGID_00000085242135234693139560000013668708354405709961_);}
	.st90{clip-path:url(#SVGID_00000127015454393758923600000007353046031281256065_);}
	.st91{clip-path:url(#SVGID_00000099621127611182507580000010533626963801582013_);}
	.st92{clip-path:url(#SVGID_00000158026963578031446070000013710575033943601032_);}
	.st93{clip-path:url(#SVGID_00000082367052986464318870000000951330049127446424_);}
	.st94{clip-path:url(#SVGID_00000088111217311422820930000004024000624146727606_);}
	.st95{clip-path:url(#SVGID_00000035495742476674825190000000731493400883017096_);}
	.st96{clip-path:url(#SVGID_00000075126929906967162180000010714242933621966732_);}
	.st97{clip-path:url(#SVGID_00000011017331921785815840000007380067450406756254_);}
	.st98{clip-path:url(#SVGID_00000015354989918153452900000018420020299109467829_);}
	.st99{clip-path:url(#SVGID_00000136408035281168479630000002328453478014445497_);}
	.st100{clip-path:url(#SVGID_00000134933317652229607030000006154789648461046157_);}
	
		.st101{clip-path:url(#SVGID_00000147904095737372251970000010477070222341757063_);fill:none;stroke:#666666;stroke-width:2.5571;stroke-miterlimit:10;}
</style>
<g id="logos">
	<g>
		<path id="XMLID_93_" class="st10" d="M93.2,31.6c-1.3-6.7-8.2-5.5-10.1-5.1c-3.5,0.7-6.9,1.5-10,2.4c1.7-5.3,3.6-10.5,6.5-17.5
			c-1.2-0.3-2.6-0.5-4.2-0.3c-1.8,0.2-3.7,1.1-4.9,3.3c-1.9,3.6-3.9,9.2-6.2,17c-4.6,1.5-8.9,3.1-12.8,4.9c2.1-7.4,4.8-14.8,7.6-21
			c-0.6-0.2-1.8-0.4-2.6-0.4c-3.2,0-5,1.2-6.5,4.3c-2.2,4.9-4.9,13-6.9,21.1c-3.9,2.1-7.4,4.2-10.6,6.4c-2,1.4-2.5,3.2-2.6,4
			c-0.1,0.6,0,1.8,0.4,2.5c2.2-1.3,6-3.5,11.2-6c-1,5.1-2.2,12.2-2.3,17.6c0,2.8,1.7,4.4,4.1,4.4c0.7,0,2-0.2,2.1-0.3
			c0.7-9.5,2.6-19.1,4-25.4c3.8-1.6,8.1-3.3,12.7-4.9c-0.1,0.4-0.2,0.8-0.3,1.3c-3.5,13.8-5.9,28.7-5.7,32.7
			c0.2,3.3,2.6,4.5,4.6,4.5c0.6,0,1.9-0.2,2.4-0.4c0.9-10.1,3.7-25.5,5.2-31.4c0.9-3.5,1.7-6.6,2.5-9.4C78,34.1,85.5,32.5,93.2,31.6
			z"/>
		<path id="XMLID_92_" class="st10" d="M40.7,86.3c-1.2,0-2.4,1.1-2.4,2.3c0,0.9,0.7,1.6,1.6,1.6c1.2,0,2.4-1.1,2.4-2.3
			C42.3,86.9,41.6,86.3,40.7,86.3z"/>
		<path id="XMLID_91_" class="st10" d="M32.4,87.4c-0.7,3.3-2.8,13.8-2.8,13.8c-0.1,0.6-0.9,3.6,2.2,3.6h0.5l4.1-20
			C36.4,84.7,33.1,84.1,32.4,87.4z"/>
		<path id="XMLID_90_" class="st10" d="M37.3,94.3c-0.7,3.2-1.4,6.8-1.4,6.8c-0.1,0.6-0.9,3.6,2.2,3.6h0.5l2.7-13
			C41.2,91.7,38,91.1,37.3,94.3z"/>
		<path id="XMLID_87_" class="st10" d="M23.1,91.5c-1.8,0-3.5,0.6-4.7,1.6c-1.9,1.6-3.1,4.2-3.1,6.9c0,3.1,2.1,4.7,5,4.7
			c1.8,0,3.5-0.6,4.7-1.6c1.9-1.6,3.1-4.2,3.1-7C28.2,93,26.1,91.5,23.1,91.5z M23,101.1c-0.6,0.7-1.3,1.2-2.2,1.2
			c-1.4,0-1.9-1-1.9-2.3c0-1.5,0.6-3.7,1.6-5c0.6-0.7,1.3-1.2,2.2-1.2c1.4,0,1.9,1,1.9,2.3C24.6,97.6,24.1,99.8,23,101.1z"/>
		<path id="XMLID_86_" class="st10" d="M90.5,86.5c-0.5,2.4-3,14.6-3,14.6c-0.2,0.7-0.8,3.6,2.2,3.6h0.5l4.3-20.8
			C93.7,83.8,91.1,83.8,90.5,86.5z"/>
		<path id="XMLID_85_" class="st10" d="M102.8,91.5c-1.7,0-3.1,0.8-4,1.8c0,0-0.1-2.5-3.5-1.5c0.6,1.8,0.3,2.4-0.4,6l-0.7,3.5
			c-0.1,0.6-0.9,3.6,2.2,3.6c0.2,0,0.5,0,0.5,0l1.2-6c0.3-1.6,1-4.7,3.4-4.7c1.2,0,1.8,0.8,1.5,2.6l-0.9,4.5
			c-0.1,0.6-0.9,3.6,2.2,3.6h0.5l1.7-8.2C107.3,93,105.5,91.5,102.8,91.5z"/>
		<path id="XMLID_84_" class="st10" d="M12.2,86.6c-0.2,0.8-0.5,2.4-1.1,5.1l-5.8,1.2L7,84.7c-0.5-0.1-3.4-0.3-4,2.7
			c-0.2,0.9-2.9,13.8-2.9,13.8c-0.1,0.7-0.9,3.6,2.2,3.6h0.5l1.7-8.1l5.8-1.2c-0.6,2.8-1.2,5.7-1.2,5.7c-0.1,0.6-0.9,3.6,2.2,3.6
			h0.5l4.3-20.8C16.2,83.9,12.9,83.3,12.2,86.6z"/>
		<path id="XMLID_83_" class="st10" d="M117.1,91.5c-1.7,0-3.1,0.8-4,1.8c0,0-0.1-2.5-3.5-1.5c0.6,1.8,0.3,2.4-0.4,6l-0.7,3.5
			c-0.1,0.6-0.9,3.6,2.2,3.6c0.2,0,0.5,0,0.5,0l1.2-6c0.3-1.6,1-4.7,3.4-4.7c1.2,0,1.8,0.8,1.5,2.6l-0.9,4.5
			c-0.1,0.6-0.9,3.6,2.2,3.6h0.5l1.7-8.2C121.6,93,119.8,91.5,117.1,91.5z"/>
		<path id="XMLID_80_" class="st10" d="M50.3,99.2c-0.2,0.9-0.5,1.8-1,2.3c-0.5,0.5-1.1,0.8-1.9,0.8c-1.2,0-1.9-0.8-1.9-2.3
			c0-3.1,2.2-6.3,4.9-6.3c0.4,0,0.8,0.1,1,0.2L50.3,99.2z M52.7,87.4c-0.3,1.6-0.9,4.3-0.9,4.2c-0.3-0.1-0.8-0.1-1.3-0.1
			c-5,0-8.6,4.1-8.6,8.7c0,2.8,1.7,4.6,4.4,4.6c1.6,0,2.8-0.6,3.5-1.3c0.3,1,1.2,1.3,2.3,1.3h0.5l4.1-20
			C56.5,84.6,53.4,84.2,52.7,87.4z"/>
		<path id="XMLID_77_" class="st10" d="M64.5,91.5c-4.8,0-8.6,3.9-8.6,8.7c0,2.8,1.6,4.6,4.2,4.6c1.6,0,2.8-0.6,3.5-1.4
			c0.3,1,1.2,1.4,2.3,1.4h0.5l2.5-12C67.6,91.9,66.2,91.5,64.5,91.5z M64.1,99.2c-0.2,0.9-0.5,1.8-1,2.3c-0.5,0.5-1.1,0.8-1.9,0.8
			c-1.2,0-1.8-0.8-1.8-2.3c0-2.7,1.9-6.4,5-6.4c0.3,0,0.6,0.1,0.8,0.2L64.1,99.2z"/>
		<path id="XMLID_74_" class="st10" d="M78.7,97.4c-0.3,1.6-0.9,4.7-3.4,4.7c-2.2,0-1.5-2.4-1.4-3.1l1.6-7.4c0,0-3.3-0.7-4.1,3
			c-0.8,3.7-0.9,4.3-0.9,4.3c-0.2,0.8-0.3,1.6-0.3,2.2c0,0.9,0.3,1.7,0.9,2.3c-2,0.5-3,1.5-3,3c0,2.2,2.2,3.5,5.1,3.5
			c2.5,0,4.5-0.8,5.7-2.3c1-1.2,1.7-2.7,2.1-5l2.4-11.1c0,0-3.4-0.6-4.1,2.8C78.6,97.8,78.7,97.4,78.7,97.4z M77.2,104.4
			c-0.3,1-0.7,1.9-1.4,2.6c-0.7,0.6-1.6,1-2.5,1c-1.2,0-2.2-0.6-2.2-1.6c0-1.3,1.3-1.6,3.2-1.8c1.3-0.2,2.5-0.5,3.2-1.1L77.2,104.4z
			"/>
	</g>
</g>
</svg>
