<?xml version="1.0" encoding="utf-8"?>
<!-- Generator: Adobe Illustrator 19.2.1, SVG Export Plug-In . SVG Version: 6.00 Build 0)  -->
<svg version="1.1" id="layer" xmlns="http://www.w3.org/2000/svg" xmlns:xlink="http://www.w3.org/1999/xlink" x="0px" y="0px"
	 viewBox="0 0 652 652" style="enable-background:new 0 0 652 652;" xml:space="preserve">
<path d="M498.5,217.2c-4.1,0-7.4,3.3-7.4,7.4c0,4.2,3.3,7.4,7.4,7.4c4.1,0,7.4-3.2,7.4-7.4C505.9,220.5,502.7,217.2,498.5,217.2
	 M498.5,230.8c-3.4,0-6.1-2.5-6.1-6.2c0-3.6,2.5-6.2,6.1-6.2c3.6,0,6.1,2.5,6.1,6.2C504.5,228.2,501.9,230.8,498.5,230.8
	 M501.3,223.1L501.3,223.1c0-1.5-1.1-2.2-2.8-2.2h-2.6v7.3h1.6v-2.8h0.8l1.8,2.8h1.7l-1.9-3.1C500.7,224.8,501.3,224.2,501.3,223.1
	 M499.7,223.1c0,0.7-0.4,1.1-1.3,1.1h-0.9v-2.1h0.9C499.3,222.1,499.7,222.3,499.7,223.1L499.7,223.1z M316.4,215.9h18.7v123.7
	h-18.7v-56.5H249v56.5h-18.5V215.9H249v54.4h67.4V215.9z M175.6,339.6h-18.5V215.9h18.5V339.6z M442.5,341.6
	c-40.4,0-68-26.7-68-63.5c0-33.6,25.6-64.3,67.6-64.3c17.4,0,34,3.9,40,5.4v21.5h-0.9c-8.4-10.5-19.8-19.8-39.8-19.8
	c-29,0-46.3,25-46.3,55.5c0,32.3,19.8,57.9,48.8,57.9c9.9,0,18.7-2.8,23.9-6.4v-47.9h18.7v51.5C478,334,462.5,341.6,442.5,341.6
	 M52.1,394.5h4.4v33.8h-4.4v-15H26.1v15h-4.4v-33.8h4.4v15.3h25.9V394.5z M88.5,394.1c-13.5,0-22.2,7.6-22.2,17.2v0.4
	c0,9.5,8.8,17.1,22.4,17.1c13.3,0,22.1-7.7,22.1-17.2v-0.4C110.8,401.6,102,394.1,88.5,394.1 M106.2,411.5c0,8.1-6.7,13.8-17.5,13.8
	c-10.5,0-17.8-5.6-17.8-13.7v-0.4c0-8,6.4-13.8,17.6-13.8c11.2,0,17.6,6.1,17.6,13.7V411.5z M114.9,394.5h32.2v3.4h-13.9v30.4h-4.4
	v-30.4h-13.9V394.5z M160.3,424.9h25.2v3.4h-29.6v-33.8h28.5v3.4h-24.1v11.4h20.3v3.4h-20.3V424.9z M199.1,424.9h21.8v3.4h-26.2
	v-33.8h4.4V424.9z M244.2,408.9c9.9,1.1,15.2,3.1,15.2,9.8c0,5.9-5.8,10.1-15.6,10.1c-11.4,0-16.4-4.8-17.2-10.7h4.3
	c0.7,4.2,3.9,7.4,12.9,7.4c7.2,0,11.3-2.5,11.3-6.6c0-4-3-5.3-12.2-6.3c-9.3-1.1-14.5-3.3-14.5-9.4c0-5.2,5.4-9,14.3-9
	c8.8,0,14.4,3.1,15.3,9.3h-4c-1-4.4-4.7-6-11.3-6c-7.1,0-10.2,2.2-10.2,5.6C232.6,406,234.8,407.8,244.2,408.9 M372.2,404.6v-0.2
	c0-7.1-6.3-9.9-13.9-9.9h-16.1v33.8h4.4v-13.7h10.8l12.1,13.7h5.3l-12.4-14.1C367.2,413.4,372.2,410.5,372.2,404.6 M346.6,411.3
	v-13.4h12c5.3,0,9.2,1.8,9.2,6.6v0.2c0,4.3-3.6,6.6-9.2,6.6H346.6z M387.9,424.9h25.2v3.4h-29.6v-33.8H412v3.4h-24.1v11.4h20.3v3.4
	h-20.3V424.9z M437.2,408.9c9.9,1.1,15.2,3.1,15.2,9.8c0,5.9-5.8,10.1-15.6,10.1c-11.3,0-16.4-4.8-17.2-10.7h4.3
	c0.7,4.2,3.9,7.4,12.9,7.4c7.2,0,11.3-2.5,11.3-6.6c0-4-3-5.3-12.2-6.3c-9.3-1.1-14.5-3.3-14.5-9.4c0-5.2,5.4-9,14.3-9
	c8.8,0,14.4,3.1,15.3,9.3h-4c-1-4.4-4.7-6-11.3-6c-7.1,0-10.2,2.2-10.2,5.6C425.5,406,427.8,407.8,437.2,408.9 M482.2,394.1
	c-13.5,0-22.2,7.6-22.2,17.2v0.4c0,9.5,8.7,17.1,22.4,17.1c13.3,0,22.1-7.7,22.1-17.2v-0.4C504.5,401.6,495.7,394.1,482.2,394.1
	 M499.9,411.5c0,8.1-6.7,13.8-17.5,13.8c-10.5,0-17.8-5.6-17.8-13.7v-0.4c0-8,6.4-13.8,17.6-13.8c11.2,0,17.6,6.1,17.6,13.7V411.5z
	 M544.4,404.6v-0.2c0-7.1-6.3-9.9-13.9-9.9h-16.1v33.8h4.4v-13.7h10.8l12.1,13.7h5.3l-12.4-14.1
	C539.5,413.4,544.4,410.5,544.4,404.6 M518.9,411.3v-13.4h12c5.3,0,9.2,1.8,9.2,6.6v0.2c0,4.3-3.6,6.6-9.2,6.6H518.9z M551.6,394.5
	h32.2v3.4h-13.9v30.4h-4.4v-30.4h-13.9V394.5z M606.5,408.9c9.9,1.1,15.2,3.1,15.2,9.8c0,5.9-5.8,10.1-15.6,10.1
	c-11.4,0-16.4-4.8-17.2-10.7h4.3c0.7,4.2,3.9,7.4,12.9,7.4c7.2,0,11.3-2.5,11.3-6.6c0-4-3-5.3-12.2-6.3c-9.3-1.1-14.5-3.3-14.5-9.4
	c0-5.2,5.4-9,14.3-9c8.8,0,14.4,3.1,15.3,9.3h-4c-1-4.4-4.7-6-11.3-6c-7.1,0-10.2,2.2-10.2,5.6C594.8,406,597.1,407.8,606.5,408.9
	 M316.3,410.8h-3.6l-5.3,8l-8.2-8.3c5.2-2,7.8-5.3,7.8-8.7c0-4.5-3.4-7.8-8.5-7.8c-4.8,0-9,2.9-9,8.1c0,3.2,1.5,5.5,3.7,7.5
	c-4.3,1.6-8.5,4.5-8.5,9.9c0,5.7,4.6,9,11.5,9c4.9,0,8.5-2.2,11-5l4.5,4.6h5l-7.1-7.2L316.3,410.8z M292.9,402.2
	c0-3.4,2.4-5.1,5.4-5.1c3.3,0,5.1,2,5.1,4.6c0,2.7-1.8,4.8-6.5,6.8C294.7,406.7,292.9,404.7,292.9,402.2 M296.2,425.4
	c-5,0-7.7-2.3-7.7-6c0-4,2.9-6.2,6.9-7.7l9.7,10C303.2,423.8,300.2,425.4,296.2,425.4"/>
</svg>
