<?xml version="1.0" encoding="utf-8"?>
<!-- Generator: Adobe Illustrator 27.0.0, SVG Export Plug-In . SVG Version: 6.00 Build 0)  -->
<svg version="1.1" id="Layer_1" xmlns="http://www.w3.org/2000/svg" xmlns:xlink="http://www.w3.org/1999/xlink" x="0px" y="0px"
	 viewBox="0 0 121 121" style="enable-background:new 0 0 121 121;" xml:space="preserve">
<style type="text/css">
	.st0{fill-rule:evenodd;clip-rule:evenodd;fill:url(#SVGID_1_);}
	.st1{fill-rule:evenodd;clip-rule:evenodd;fill:url(#SVGID_00000146459666319638811010000002267723886478366854_);}
	.st2{fill-rule:evenodd;clip-rule:evenodd;fill:url(#SVGID_00000112630304156003688250000001937731844283984542_);}
	.st3{fill-rule:evenodd;clip-rule:evenodd;fill:url(#SVGID_00000063629123348788018810000002742809218853508269_);}
	.st4{fill-rule:evenodd;clip-rule:evenodd;fill:url(#SVGID_00000136409920224193552090000003793693519344531641_);}
	.st5{fill-rule:evenodd;clip-rule:evenodd;fill:url(#SVGID_00000170258170158613822630000005796221867262170021_);}
	.st6{fill-rule:evenodd;clip-rule:evenodd;fill:url(#SVGID_00000110453613939371733590000017051680410228171442_);}
	.st7{fill:url(#SVGID_00000183207799961106477850000006203908481604589236_);}
	.st8{fill:url(#SVGID_00000115490576378416993270000014376114394021991581_);}
	.st9{fill:#231F20;}
	.st10{fill:#3F3F3F;}
	.st11{clip-path:url(#SVGID_00000183943912179281854960000012736138202503879073_);}
	.st12{clip-path:url(#SVGID_00000121258950294157457380000005334745263825954225_);}
	.st13{clip-path:url(#SVGID_00000163759401168485213830000002656684997308897947_);}
	.st14{clip-path:url(#SVGID_00000088119848690576942000000017152557245751362186_);}
	.st15{fill:#DBDBDB;}
	.st16{clip-path:url(#SVGID_00000114770032881659770720000003422151214291410099_);}
	.st17{fill:#E2E2E2;}
	.st18{clip-path:url(#SVGID_00000098211521159521589660000009711343048570495668_);}
	.st19{fill:#BFBFBF;}
	.st20{clip-path:url(#SVGID_00000133518708775086000270000007838478328209583038_);}
	.st21{fill:#D0D0D0;}
	.st22{clip-path:url(#SVGID_00000179632063136072212420000000741405597387072135_);}
	.st23{clip-path:url(#SVGID_00000142892322474227841570000015695813903017183363_);}
	.st24{clip-path:url(#SVGID_00000155845690671178348300000012038876162328153754_);}
	.st25{clip-path:url(#SVGID_00000100343322240227315430000018261098299104352392_);}
	.st26{clip-path:url(#SVGID_00000001630974956572514690000003412895598726076093_);}
	.st27{clip-path:url(#SVGID_00000022547622467731510350000009277608309657225886_);}
	.st28{clip-path:url(#SVGID_00000046324307767367516610000018058282568606285707_);}
	.st29{clip-path:url(#SVGID_00000126325203036087344340000013543207954035032483_);}
	.st30{clip-path:url(#SVGID_00000021825790425525023510000000736715776967698585_);}
	.st31{clip-path:url(#SVGID_00000091714334998550757400000004184147287449276333_);}
	.st32{clip-path:url(#SVGID_00000054954383639132520910000002220079197348179096_);}
	.st33{clip-path:url(#SVGID_00000059298511866588012560000001209118293764165009_);}
	.st34{clip-path:url(#SVGID_00000033344243043396043130000004488830076584834190_);}
	.st35{clip-path:url(#SVGID_00000120546670895813686920000009821220615450385338_);}
	.st36{clip-path:url(#SVGID_00000041262685972275120880000016287752401916254124_);}
	.st37{clip-path:url(#SVGID_00000080202745900396802370000003754849378917800088_);}
	.st38{clip-path:url(#SVGID_00000002385576013386618090000010050868961819234688_);}
	.st39{clip-path:url(#SVGID_00000142166010767121614270000003464734436383739795_);}
	.st40{clip-path:url(#SVGID_00000080910206855693237270000018328678271726445189_);}
	.st41{clip-path:url(#SVGID_00000156570023650069981180000002217289833598336902_);}
	.st42{clip-path:url(#SVGID_00000065067530563363891110000004549453181384455359_);}
	.st43{clip-path:url(#SVGID_00000052801185115306698880000014067476656726261917_);}
	.st44{clip-path:url(#SVGID_00000107576405009456777200000012694516967590931607_);}
	.st45{clip-path:url(#SVGID_00000060721568094898704810000014869419715748854159_);}
	.st46{clip-path:url(#SVGID_00000072266653886956427240000012057966128560624549_);}
	.st47{clip-path:url(#SVGID_00000017496086962292402080000005874025795456128179_);}
	.st48{clip-path:url(#SVGID_00000031195551873028881840000015995866364502988975_);}
	.st49{clip-path:url(#SVGID_00000065779994242130118770000002599495088565441973_);}
	.st50{clip-path:url(#SVGID_00000023253826836289555250000003779547484876564659_);}
	
		.st51{clip-path:url(#SVGID_00000020379298897303151740000006744676745549771677_);fill:none;stroke:#666666;stroke-width:68.1492;stroke-miterlimit:10;}
	.st52{fill:#B7B7B7;}
	.st53{fill:#C9C9C9;}
	.st54{fill:#545454;}
	.st55{fill:#B6B6B6;}
	.st56{fill-rule:evenodd;clip-rule:evenodd;fill:url(#SVGID_00000044136640813420453610000006153261226809810846_);}
	.st57{fill-rule:evenodd;clip-rule:evenodd;fill:url(#SVGID_00000114792826714612274900000007885492462737928891_);}
	.st58{fill-rule:evenodd;clip-rule:evenodd;fill:url(#SVGID_00000142151227906306062620000010904157514694881413_);}
	.st59{fill-rule:evenodd;clip-rule:evenodd;fill:url(#SVGID_00000035530248412490068650000004578881925890473125_);}
	.st60{fill-rule:evenodd;clip-rule:evenodd;fill:url(#SVGID_00000141416664333443596740000000201553816977224602_);}
	.st61{fill-rule:evenodd;clip-rule:evenodd;fill:url(#SVGID_00000143588951158869974910000006967952272695004313_);}
	.st62{fill-rule:evenodd;clip-rule:evenodd;fill:url(#SVGID_00000037675021129184332420000010367641695872923567_);}
	.st63{fill:url(#SVGID_00000165233222083497302260000010261999079139615673_);}
	.st64{fill:url(#SVGID_00000114038634163291839450000000935369801289699469_);}
	.st65{clip-path:url(#SVGID_00000084505864587996961560000011364502577625532290_);}
	.st66{clip-path:url(#SVGID_00000050650283045122612970000010256948782407384975_);}
	.st67{clip-path:url(#SVGID_00000015324969978474292050000011088808263874394004_);}
	.st68{clip-path:url(#SVGID_00000140734214771492118740000008438816480794162351_);}
	.st69{clip-path:url(#SVGID_00000145737346482966779130000002438279167593797791_);}
	.st70{clip-path:url(#SVGID_00000105399357156016889030000005093547933846497411_);}
	.st71{clip-path:url(#SVGID_00000150802609104771179250000001460160496001836457_);}
	.st72{clip-path:url(#SVGID_00000052104052969681158940000007505417301122977677_);}
	.st73{clip-path:url(#SVGID_00000143576141600818094930000015131729815743108276_);}
	.st74{clip-path:url(#SVGID_00000024710363511543042370000006644285150432398777_);}
	.st75{clip-path:url(#SVGID_00000038377727045054611290000008267394204883026341_);}
	.st76{clip-path:url(#SVGID_00000060018151115581712370000017597828845574134183_);}
	.st77{clip-path:url(#SVGID_00000042015083412238809670000002517329980993813417_);}
	.st78{clip-path:url(#SVGID_00000097489743292817203700000003040143218730753664_);}
	.st79{clip-path:url(#SVGID_00000023241524819188292200000000708845115669132682_);}
	.st80{clip-path:url(#SVGID_00000067229677263867072360000010167732497517222801_);}
	.st81{clip-path:url(#SVGID_00000159429397541895413510000001617469950048315581_);}
	.st82{clip-path:url(#SVGID_00000127762457107390113170000008971742984349026460_);}
	.st83{clip-path:url(#SVGID_00000004512527428613902150000009531157504149627824_);}
	.st84{clip-path:url(#SVGID_00000153678554576850561910000016854703924651152792_);}
	.st85{clip-path:url(#SVGID_00000005970318697711999920000006858145425247107467_);}
	.st86{clip-path:url(#SVGID_00000083806922260283636600000006918158837175100584_);}
	.st87{clip-path:url(#SVGID_00000156557002252885440870000001540340534337723295_);}
	.st88{clip-path:url(#SVGID_00000180344144623604243850000002874899473340437671_);}
	.st89{clip-path:url(#SVGID_00000104682422397379441640000005254543585723724943_);}
	.st90{clip-path:url(#SVGID_00000037650179387502029340000016226015351957304982_);}
	.st91{clip-path:url(#SVGID_00000068677581979372266100000010739441912394995126_);}
	.st92{clip-path:url(#SVGID_00000001629519731824167530000008511907332873581484_);}
	.st93{clip-path:url(#SVGID_00000139986212897783780750000013112447125357821332_);}
	.st94{clip-path:url(#SVGID_00000061433423139732995180000008747695395139613850_);}
	.st95{clip-path:url(#SVGID_00000147190810480744715330000014605415341978755766_);}
	.st96{clip-path:url(#SVGID_00000000225068796751242920000014485589347778311854_);}
	.st97{clip-path:url(#SVGID_00000129894793514152760340000016835208387716932764_);}
	.st98{clip-path:url(#SVGID_00000041287573607026416960000014056986654702301361_);}
	.st99{clip-path:url(#SVGID_00000137093141068584734980000009594227264262723210_);}
	.st100{clip-path:url(#SVGID_00000036227609270329991830000004663120947405318044_);}
	
		.st101{clip-path:url(#SVGID_00000120539381652521723000000012472075735677267112_);fill:none;stroke:#666666;stroke-width:2.5571;stroke-miterlimit:10;}
	.st102{fill:#6F6F6F;}
	.st103{font-family:'Helvetica-Light';}
	.st104{font-size:5.3626px;}
</style>
<text transform="matrix(1 0 0 1 14.885 74.5009)" class="st102 st103 st104">I  N  D  I  A    W  Y  N    G  A  M  I  N  G</text>
<path class="st55" d="M22.3,67.3H16l-5.4-14c-0.2-0.5-0.5-0.7-1-0.7c-0.3,0-0.6,0.1-0.8,0.3c-0.2,0.2-0.5,1.1-0.3,3.3v0
	c0,0.2-0.1,0.2-0.3,0.2c-0.2,0-0.3-0.1-0.3-0.2v-9.9h6.3l0.1,0.1l5.3,13.9c0.2,0.5,0.5,0.7,1,0.7c0.3,0,0.6-0.1,0.8-0.3
	c0.2-0.2,0.3-1.9,0.3-2.2l0-0.1c0-0.2,0.1-0.3,0.3-0.3c0.2,0,0.2,0.1,0.2,0.3V67.3z"/>
<path class="st55" d="M31.9,67.3h-7.5l0-0.7l0,0V47.1l0,0l0-0.7h7.5c1.8,0,3.5,0.3,5,0.9c1.5,0.6,2.7,1.4,3.6,2.4
	c1.9,2.1,2.8,4.4,2.8,7c0,3.5-0.9,6.2-2.8,7.9S35.7,67.3,31.9,67.3z M30,67.3c2.7,0,4.6-1.5,5.8-2.9c1.2-1.5,1.8-3.8,1.8-7.1
	c0-3.3-0.6-5.8-1.9-7.5c-1.3-1.7-3.2-3.3-5.7-3.3V67.3z"/>
<path class="st55" d="M0,67.3v-21h5.9v21H0z"/>
<path class="st55" d="M45.3,67.3v-21h5.9v21H45.3z"/>
<path class="st55" d="M53.2,58.4L57.9,46l8.2,21.3h-6.4l-3.7-9.6c-0.1-0.2-0.3-0.4-0.5-0.5C55.4,57.1,55.2,57,55,57
	c-0.2,0-0.4,0.1-0.6,0.2c-0.2,0.1-0.3,0.3-0.4,0.5l-0.3,0.9c-0.1,0.2-0.2,0.2-0.3,0.1S53.1,58.6,53.2,58.4z"/>
<path class="st55" d="M80.7,67.2l-8.1-21h6.1l5,13.1L80.7,67.2z M89.3,67.2l-8.1-21h6.3l3.6,9.5c0.2,0.5,0.5,0.7,1,0.7
	c0.5,0,0.8-0.2,1-0.7l0.6-1.3c0-0.1,0.1-0.1,0.1-0.1c0.1,0,0.1,0,0.2,0c0.1,0,0.1,0.1,0.1,0.1c0,0.1,0,0.1,0,0.2L89.3,67.2z"/>
<path class="st55" d="M103,67.3h-6V56.8l-4.1-10.6h6l3.1,8c0.1,0.4,0.4,0.5,0.7,0.5c0.4,0,0.6-0.2,0.7-0.5L104,53
	c0.1-0.1,0.2-0.1,0.3-0.1c0.2,0,0.2,0.2,0.1,0.3l-1.5,3.9V67.3z"/>
<path class="st55" d="M121,67.3h-6.3l-5.4-14c-0.2-0.5-0.5-0.7-1-0.7c-0.3,0-0.6,0.1-0.8,0.3c-0.2,0.2-0.5,1.1-0.3,3.3v0
	c0,0.2-0.1,0.2-0.3,0.2c-0.2,0-0.3-0.1-0.3-0.2v-9.9h6.3l0.1,0.1l5.3,13.9c0.2,0.5,0.5,0.7,1,0.7c0.3,0,0.6-0.1,0.8-0.3
	c0.2-0.2,0.3-1.9,0.3-2.2l0-0.1c0-0.2,0.1-0.3,0.3-0.3c0.2,0,0.2,0.1,0.2,0.3V67.3z"/>
</svg>
