<?xml version="1.0" encoding="utf-8"?>
<!-- Generator: Adobe Illustrator 27.0.0, SVG Export Plug-In . SVG Version: 6.00 Build 0)  -->
<svg version="1.1" id="Layer_1" xmlns="http://www.w3.org/2000/svg" xmlns:xlink="http://www.w3.org/1999/xlink" x="0px" y="0px"
	 viewBox="0 0 121 121" style="enable-background:new 0 0 121 121;" xml:space="preserve">
<style type="text/css">
	.st0{fill-rule:evenodd;clip-rule:evenodd;fill:url(#SVGID_1_);}
	.st1{fill-rule:evenodd;clip-rule:evenodd;fill:url(#SVGID_00000048499170193674924770000002095332453325925259_);}
	.st2{fill-rule:evenodd;clip-rule:evenodd;fill:url(#SVGID_00000089575759574968227850000010093088398897923507_);}
	.st3{fill-rule:evenodd;clip-rule:evenodd;fill:url(#SVGID_00000001628154639086688100000009258755521952230839_);}
	.st4{fill-rule:evenodd;clip-rule:evenodd;fill:url(#SVGID_00000055668060350960649410000004110969670773170312_);}
	.st5{fill-rule:evenodd;clip-rule:evenodd;fill:url(#SVGID_00000127750012934732211960000004495755309440188820_);}
	.st6{fill-rule:evenodd;clip-rule:evenodd;fill:url(#SVGID_00000080909791354471185410000017408667718740737189_);}
	.st7{fill:url(#SVGID_00000042704942623813309250000009183450778732915347_);}
	.st8{fill:url(#SVGID_00000025428410631575025530000006478877004085800082_);}
	.st9{fill:#231F20;}
	.st10{fill:#3F3F3F;}
	.st11{clip-path:url(#SVGID_00000176024261818333128010000012046516489271971716_);}
	.st12{clip-path:url(#SVGID_00000072998794720846210960000002757569150531023283_);}
	.st13{clip-path:url(#SVGID_00000156558477564978659730000004247019212196951460_);}
	.st14{clip-path:url(#SVGID_00000074413272316624995280000003494220408448567481_);}
	.st15{fill:#DBDBDB;}
	.st16{clip-path:url(#SVGID_00000130640038214793457100000004353452147246292609_);}
	.st17{fill:#E2E2E2;}
	.st18{clip-path:url(#SVGID_00000118361821826810568130000010122502035862010278_);}
	.st19{fill:#BFBFBF;}
	.st20{clip-path:url(#SVGID_00000076591399039995497810000000021568745831061395_);}
	.st21{fill:#D0D0D0;}
	.st22{clip-path:url(#SVGID_00000164492229977418749000000003242480538724059061_);}
	.st23{clip-path:url(#SVGID_00000049927676959424646430000004087187570735123903_);}
	.st24{clip-path:url(#SVGID_00000042719877600983440830000015895015070659379108_);}
	.st25{clip-path:url(#SVGID_00000169541140481393614020000015529204132444356239_);}
	.st26{clip-path:url(#SVGID_00000000935727795963055120000005570172754539581373_);}
	.st27{clip-path:url(#SVGID_00000124160302288106261080000010890962908957320842_);}
	.st28{clip-path:url(#SVGID_00000014621551743213237010000016144678805095552146_);}
	.st29{clip-path:url(#SVGID_00000009552167396500244010000003414686567725619862_);}
	.st30{clip-path:url(#SVGID_00000042727869578047151360000010359320109217109645_);}
	.st31{clip-path:url(#SVGID_00000057863838364762050720000009442942120150850213_);}
	.st32{clip-path:url(#SVGID_00000047032319458830546400000011929778473836897208_);}
	.st33{clip-path:url(#SVGID_00000001623087877251991310000008452089525660850053_);}
	.st34{clip-path:url(#SVGID_00000051375075669499542060000000270718820532331964_);}
	.st35{clip-path:url(#SVGID_00000005234272942117507010000017546539833480940450_);}
	.st36{clip-path:url(#SVGID_00000179630192658816955340000006673796729927359904_);}
	.st37{clip-path:url(#SVGID_00000107577880894754566520000007688895696082383525_);}
	.st38{clip-path:url(#SVGID_00000020361566752273285960000008453965394750164375_);}
	.st39{clip-path:url(#SVGID_00000080195479338983867070000007658651659698247338_);}
	.st40{clip-path:url(#SVGID_00000119098091229619652610000004645048304411038343_);}
	.st41{clip-path:url(#SVGID_00000021817762088380776010000009354936011760919220_);}
	.st42{clip-path:url(#SVGID_00000084529242442481138620000016506554969265356711_);}
	.st43{clip-path:url(#SVGID_00000069390567771977721290000010338893775773509048_);}
	.st44{clip-path:url(#SVGID_00000074417805204250850630000012606119116271183494_);}
	.st45{clip-path:url(#SVGID_00000098188075821987821780000011248610417742875268_);}
	.st46{clip-path:url(#SVGID_00000031167670905205000700000003406422599502425010_);}
	.st47{clip-path:url(#SVGID_00000134957019229218367490000003793096114711028387_);}
	.st48{clip-path:url(#SVGID_00000096751329168400100700000011150657474098059425_);}
	.st49{clip-path:url(#SVGID_00000024003030820717732990000015106770995836935328_);}
	.st50{clip-path:url(#SVGID_00000129920868220298110110000010451972830730784132_);}
	
		.st51{clip-path:url(#SVGID_00000146485931812217963500000006241111378765498806_);fill:none;stroke:#666666;stroke-width:68.1492;stroke-miterlimit:10;}
	.st52{fill:#B7B7B7;}
	.st53{fill:#C9C9C9;}
	.st54{fill:#545454;}
	.st55{fill:#B6B6B6;}
	.st56{fill-rule:evenodd;clip-rule:evenodd;fill:url(#SVGID_00000057836992578894995520000000923052150501078926_);}
	.st57{fill-rule:evenodd;clip-rule:evenodd;fill:url(#SVGID_00000133490355648884822260000009508117419721420675_);}
	.st58{fill-rule:evenodd;clip-rule:evenodd;fill:url(#SVGID_00000170262875767859291520000004247099647158732461_);}
	.st59{fill-rule:evenodd;clip-rule:evenodd;fill:url(#SVGID_00000164478445176792736750000017068143150617661100_);}
	.st60{fill-rule:evenodd;clip-rule:evenodd;fill:url(#SVGID_00000109021869428070741930000001323080271900290467_);}
	.st61{fill-rule:evenodd;clip-rule:evenodd;fill:url(#SVGID_00000066484530264285332400000016617910289778475404_);}
	.st62{fill-rule:evenodd;clip-rule:evenodd;fill:url(#SVGID_00000116929707366166603620000013363869252829382573_);}
	.st63{fill:url(#SVGID_00000150103963390539490460000007774275694662112644_);}
	.st64{fill:url(#SVGID_00000142863006367757893220000002149498720016918709_);}
	.st65{clip-path:url(#SVGID_00000169527446131868015370000014936877033376930992_);}
	.st66{clip-path:url(#SVGID_00000101078065959498295180000017723669794060389517_);}
	.st67{clip-path:url(#SVGID_00000096031433071190875380000006627080694093934755_);}
	.st68{clip-path:url(#SVGID_00000087402537630317144740000000009055024296958603_);}
	.st69{clip-path:url(#SVGID_00000169527470731643926840000005083309890901041594_);}
	.st70{clip-path:url(#SVGID_00000088134380717767968750000010899571129665367457_);}
	.st71{clip-path:url(#SVGID_00000044887624529889948670000003344258313435336842_);}
	.st72{clip-path:url(#SVGID_00000071551575299172725190000014155703725704431785_);}
	.st73{clip-path:url(#SVGID_00000088120448555721462290000011513222309931461557_);}
	.st74{clip-path:url(#SVGID_00000098194722860811169910000012129524224781771929_);}
	.st75{clip-path:url(#SVGID_00000131338241101367472760000009783524527233505708_);}
	.st76{clip-path:url(#SVGID_00000165947724380152251790000010079009949928333710_);}
	.st77{clip-path:url(#SVGID_00000144315509251445416420000008910536909370988434_);}
	.st78{clip-path:url(#SVGID_00000174590741552459632770000001445735825917383864_);}
	.st79{clip-path:url(#SVGID_00000000203755234168007090000012245585015670170796_);}
	.st80{clip-path:url(#SVGID_00000178181142090034750730000009021171397975032728_);}
	.st81{clip-path:url(#SVGID_00000116957464342584912180000000519240053320427428_);}
	.st82{clip-path:url(#SVGID_00000013188029611812640830000014227108748530212539_);}
	.st83{clip-path:url(#SVGID_00000122687500037432948670000002965134087496729012_);}
	.st84{clip-path:url(#SVGID_00000058561088325311520390000010938431440847230137_);}
	.st85{clip-path:url(#SVGID_00000088833769305445883820000017928274829866934673_);}
	.st86{clip-path:url(#SVGID_00000182501651741012304620000016826867350896403644_);}
	.st87{clip-path:url(#SVGID_00000149348443196716825230000002086223612254013831_);}
	.st88{clip-path:url(#SVGID_00000080183959594232597030000002798048601842873015_);}
	.st89{clip-path:url(#SVGID_00000026157611161029271880000009733078582333641620_);}
	.st90{clip-path:url(#SVGID_00000133508268794161014040000004301051335685164987_);}
	.st91{clip-path:url(#SVGID_00000119801442513175315530000001820104661164134529_);}
	.st92{clip-path:url(#SVGID_00000120558620128099678830000005449994482760937609_);}
	.st93{clip-path:url(#SVGID_00000116207659398622580960000011029831353388567468_);}
	.st94{clip-path:url(#SVGID_00000049212245234592210570000002267070762482903434_);}
	.st95{clip-path:url(#SVGID_00000008838790925731864940000016101719861620012988_);}
	.st96{clip-path:url(#SVGID_00000021825978950381581560000007469228842560343977_);}
	.st97{clip-path:url(#SVGID_00000111159200305921647380000003834394618690084527_);}
	.st98{clip-path:url(#SVGID_00000019663611595881448780000017886956438536094107_);}
	.st99{clip-path:url(#SVGID_00000007391718825629138720000006370020544339963308_);}
	.st100{clip-path:url(#SVGID_00000120537428955867559410000010495099522715757207_);}
	
		.st101{clip-path:url(#SVGID_00000037691815641002355350000000004773439143988104_);fill:none;stroke:#666666;stroke-width:2.5571;stroke-miterlimit:10;}
</style>
<path class="st10" d="M12.9,115.5c0-0.3-0.2-0.6-0.6-0.6c-0.4,0-0.6,0.3-0.6,0.6c0,1.5,3.8,0.7,3.8,3.4c0,1.7-1,2.4-3.4,2.4
	c-2,0-3-0.5-3-2.2v-0.2h2.5v0.3c0,0.4,0.2,0.7,0.6,0.7c0.5,0,0.6-0.3,0.6-0.7c0-0.5-0.2-0.6-0.5-0.7c-0.3-0.2-0.8-0.3-1.3-0.5
	c-1.4-0.6-1.8-1-1.8-2.1c0-1,0.4-1.6,1-1.9c0.4-0.2,1.1-0.5,2.1-0.5c2.6,0,3,1,3,2.3h-2.4V115.5z M25.7,119.9H24l-0.3,1.1h-2.6
	l2.2-7.4h3.2l2.2,7.4H26L25.7,119.9z M24.9,115.3L24.9,115.3l-0.6,3h1.2L24.9,115.3z M34.5,113.7h2.6v5.7h2.8v1.7h-5.4V113.7z
	 M49,113.5c3.3,0,3.3,1.6,3.3,3.8c0,2.4,0,3.8-3.3,3.8c-3.3,0-3.3-1.5-3.3-3.8C45.7,115.1,45.7,113.5,49,113.5z M49,114.9
	c-0.6,0-0.7,0.3-0.7,2.5c0,2.2,0.1,2.5,0.7,2.5c0.5,0,0.6-0.3,0.6-2.5C49.6,115.2,49.5,114.9,49,114.9z M62.7,113.7h2.4v7.4h-2.7
	l-1.4-4.6h0v4.6h-2.3v-7.4h2.8l1.3,4.5h0V113.7z M80.3,113.7h3.4c2,0,3,0.7,3,2.3c0,1.6-1.3,2.3-3,2.3h-0.8v2.8h-2.6V113.7z
	 M82.9,116.8h0.3c0.5,0,0.9-0.1,0.9-0.8c0-0.5-0.2-0.8-0.9-0.8h-0.3V116.8z M92.9,113.7h3.8c1.8,0,2.5,0.7,2.5,1.9
	c0,1.2-0.6,1.7-1.5,1.8v0c0.5,0,1,0.2,1.2,0.6c0.2,0.3,0.2,0.8,0.2,1.3v0.6c0,0.4,0,0.8,0.1,0.9c0.1,0.1,0.2,0.2,0.3,0.2v0.1h-2.7
	c-0.2-0.2-0.2-0.7-0.2-1.1c0-0.4,0-0.7,0-1.1c0-0.6-0.3-0.7-0.7-0.7h-0.5v2.9h-2.6V113.7z M95.5,116.8h0.4c0.4,0,0.9-0.2,0.9-0.9
	c0-0.6-0.4-0.8-0.9-0.8h-0.3V116.8z M108.8,113.5c3.3,0,3.3,1.6,3.3,3.8c0,2.4,0,3.8-3.3,3.8c-3.3,0-3.3-1.5-3.3-3.8
	C105.5,115.1,105.5,113.5,108.8,113.5z M108.8,114.9c-0.6,0-0.7,0.3-0.7,2.5c0,2.2,0.1,2.5,0.7,2.5c0.6,0,0.7-0.3,0.7-2.5
	C109.4,115.2,109.3,114.9,108.8,114.9z"/>
<g>
	<rect x="1.1" width="119" height="107.5"/>
	<g>
		
			<linearGradient id="SVGID_1_" gradientUnits="userSpaceOnUse" x1="1058.5321" y1="-223.6708" x2="1058.5321" y2="-140.8365" gradientTransform="matrix(1 0 0 1 -954.4383 225.712)">
			<stop  offset="5.913980e-02" style="stop-color:#FFFFFF"/>
			<stop  offset="0.2611" style="stop-color:#FFFFFF"/>
			<stop  offset="0.5323" style="stop-color:#9A9A9A"/>
			<stop  offset="0.6989" style="stop-color:#E0E0E0"/>
			<stop  offset="1" style="stop-color:#969696"/>
		</linearGradient>
		<path class="st0" d="M108.5,12.3c-2.7-2.6-6.6-3.9-11.8-3.9c-0.2,0-0.4,0-0.6,0v10c0.2-0.1,0.5-0.1,0.9-0.1c0.8,0,1.3,0.1,1.7,0.4
			c0.3,0.3,0.5,0.7,0.5,1.4v15.1h12.9V21.4C112.1,17.6,110.9,14.6,108.5,12.3z"/>
		<g>
			
				<linearGradient id="SVGID_00000110438614064510966550000007384982031674575754_" gradientUnits="userSpaceOnUse" x1="1022.893" y1="-223.6636" x2="1022.893" y2="-140.837" gradientTransform="matrix(1 0 0 1 -954.4383 225.712)">
				<stop  offset="5.913980e-02" style="stop-color:#FFFFFF"/>
				<stop  offset="0.2611" style="stop-color:#FFFFFF"/>
				<stop  offset="0.5323" style="stop-color:#9A9A9A"/>
				<stop  offset="0.6989" style="stop-color:#E0E0E0"/>
				<stop  offset="1" style="stop-color:#969696"/>
			</linearGradient>
			
				<rect x="60.1" y="71.6" style="fill-rule:evenodd;clip-rule:evenodd;fill:url(#SVGID_00000110438614064510966550000007384982031674575754_);" width="16.7" height="11.2"/>
			
				<linearGradient id="SVGID_00000084529920836125240270000006312346362360490143_" gradientUnits="userSpaceOnUse" x1="1007.4737" y1="-223.6692" x2="1007.4737" y2="-140.8368" gradientTransform="matrix(1 0 0 1 -954.4383 225.712)">
				<stop  offset="5.913980e-02" style="stop-color:#FFFFFF"/>
				<stop  offset="0.2611" style="stop-color:#FFFFFF"/>
				<stop  offset="0.5323" style="stop-color:#9A9A9A"/>
				<stop  offset="0.6989" style="stop-color:#E0E0E0"/>
				<stop  offset="1" style="stop-color:#969696"/>
			</linearGradient>
			
				<polygon style="fill-rule:evenodd;clip-rule:evenodd;fill:url(#SVGID_00000084529920836125240270000006312346362360490143_);" points="
				46.9,82.8 59.1,82.8 59.1,72.9 59.1,72.9 59.1,8.8 46.9,8.8 			"/>
			
				<linearGradient id="SVGID_00000069358778497453983340000009450644160890467510_" gradientUnits="userSpaceOnUse" x1="1058.5256" y1="-223.6694" x2="1058.5256" y2="-140.8373" gradientTransform="matrix(1 0 0 1 -954.4383 225.712)">
				<stop  offset="5.913980e-02" style="stop-color:#FFFFFF"/>
				<stop  offset="0.2611" style="stop-color:#FFFFFF"/>
				<stop  offset="0.5323" style="stop-color:#9A9A9A"/>
				<stop  offset="0.6989" style="stop-color:#E0E0E0"/>
				<stop  offset="1" style="stop-color:#969696"/>
			</linearGradient>
			<path style="fill-rule:evenodd;clip-rule:evenodd;fill:url(#SVGID_00000069358778497453983340000009450644160890467510_);" d="
				M96.1,57.5h3.1v13.9c0,0.7-0.2,1.2-0.7,1.5c-0.5,0.3-0.9,0.4-1.5,0.4c-0.3,0-0.6,0-0.9-0.1v10.1c1.2-0.3,2.4-0.7,3.4-1.3
				c1-0.6,2.3-1.6,3.8-3.2l1.9,3.9h6.9V46.4h-16V57.5z"/>
			
				<linearGradient id="SVGID_00000000218166169615706010000011337980521627808399_" gradientUnits="userSpaceOnUse" x1="1042.1702" y1="-223.6701" x2="1042.1702" y2="-140.8365" gradientTransform="matrix(1 0 0 1 -954.4383 225.712)">
				<stop  offset="5.913980e-02" style="stop-color:#FFFFFF"/>
				<stop  offset="0.2611" style="stop-color:#FFFFFF"/>
				<stop  offset="0.5323" style="stop-color:#9A9A9A"/>
				<stop  offset="0.6989" style="stop-color:#E0E0E0"/>
				<stop  offset="1" style="stop-color:#969696"/>
			</linearGradient>
			<path style="fill-rule:evenodd;clip-rule:evenodd;fill:url(#SVGID_00000000218166169615706010000011337980521627808399_);" d="
				M80.6,22.7V71c0,4.3,1.3,7.6,4.1,9.8c2.3,1.9,5.2,2.9,8.7,2.9c0.5,0,1,0,1.5-0.1V8.3c-5,0.3-8.6,1.5-11,3.9
				C81.7,14.4,80.6,17.9,80.6,22.7z"/>
			
				<linearGradient id="SVGID_00000044894491919672714460000004921306152879161000_" gradientUnits="userSpaceOnUse" x1="989.5756" y1="-223.6702" x2="989.5756" y2="-140.8362" gradientTransform="matrix(1 0 0 1 -954.4383 225.712)">
				<stop  offset="5.913980e-02" style="stop-color:#FFFFFF"/>
				<stop  offset="0.2611" style="stop-color:#FFFFFF"/>
				<stop  offset="0.5323" style="stop-color:#9A9A9A"/>
				<stop  offset="0.6989" style="stop-color:#E0E0E0"/>
				<stop  offset="1" style="stop-color:#969696"/>
			</linearGradient>
			
				<polygon style="fill-rule:evenodd;clip-rule:evenodd;fill:url(#SVGID_00000044894491919672714460000004921306152879161000_);" points="
				32.3,8.7 27,30.6 31.9,47.5 43.3,8.7 			"/>
			
				<linearGradient id="SVGID_00000121996131045166760500000014088575474110432679_" gradientUnits="userSpaceOnUse" x1="974.8004" y1="-223.6693" x2="974.8004" y2="-140.8371" gradientTransform="matrix(1 0 0 1 -954.4383 225.712)">
				<stop  offset="5.913980e-02" style="stop-color:#FFFFFF"/>
				<stop  offset="0.2611" style="stop-color:#FFFFFF"/>
				<stop  offset="0.5323" style="stop-color:#9A9A9A"/>
				<stop  offset="0.6989" style="stop-color:#E0E0E0"/>
				<stop  offset="1" style="stop-color:#969696"/>
			</linearGradient>
			
				<polygon style="fill-rule:evenodd;clip-rule:evenodd;fill:url(#SVGID_00000121996131045166760500000014088575474110432679_);" points="
				19.6,8.7 9.1,8.7 19.5,46.4 19.8,82.9 31.6,82.8 31.5,49.6 			"/>
		</g>
	</g>
	
		<linearGradient id="SVGID_00000162350010458524806130000011647955622958633654_" gradientUnits="userSpaceOnUse" x1="1354.3767" y1="-184.5726" x2="1473.3971" y2="-184.5726" gradientTransform="matrix(1 0 0 1 -1353.2832 283.4184)">
		<stop  offset="0" style="stop-color:#F2F2F2"/>
		<stop  offset="0.2097" style="stop-color:#B1B3B5"/>
		<stop  offset="0.5" style="stop-color:#9A9A9A"/>
		<stop  offset="0.8602" style="stop-color:#B8BABC"/>
		<stop  offset="1" style="stop-color:#F1F1F2"/>
	</linearGradient>
	<path style="fill:url(#SVGID_00000162350010458524806130000011647955622958633654_);" d="M1.1,90.2v17.3h119V90.2H1.1z"/>
	
		<linearGradient id="SVGID_00000101789583669451090120000000925068923780170893_" gradientUnits="userSpaceOnUse" x1="1354.3767" y1="-184.5726" x2="1473.3971" y2="-184.5726" gradientTransform="matrix(1 0 0 1 -1353.2832 283.4184)">
		<stop  offset="0" style="stop-color:#F2F2F2"/>
		<stop  offset="0.25" style="stop-color:#9A9A9A"/>
		<stop  offset="0.5" style="stop-color:#E0E0E0"/>
		<stop  offset="0.75" style="stop-color:#B4B5B8"/>
		<stop  offset="1" style="stop-color:#F1F1F2"/>
	</linearGradient>
	<path style="fill:url(#SVGID_00000101789583669451090120000000925068923780170893_);" d="M1.1,90.2v17.3h119V90.2H1.1z"/>
</g>
<rect x="20.9" y="95.1" class="st9" width="1.2" height="7.5"/>
<polygon class="st9" points="35.1,102.6 33.7,102.6 28.8,96.6 28.8,96.6 28.8,102.6 27.6,102.6 27.6,95.1 29,95.1 33.9,101.2 
	33.9,101.2 33.9,95.1 35.1,95.1 "/>
<path class="st9" d="M47.1,101.6c-0.2,0.3-0.5,0.5-0.9,0.7c-0.3,0.2-0.7,0.3-1.2,0.4c-0.4,0.1-0.9,0.1-1.3,0.1c-0.5,0-1,0-1.5-0.2
	c-0.5-0.1-0.9-0.3-1.2-0.5c-0.4-0.2-0.6-0.5-0.8-0.8c-0.2-0.3-0.3-0.7-0.3-1.2h1.2c0,0.3,0.1,0.6,0.2,0.8c0.2,0.2,0.4,0.4,0.6,0.6
	c0.2,0.1,0.5,0.3,0.9,0.3c0.3,0.1,0.7,0.1,1,0.1c0.3,0,0.6,0,0.8-0.1c0.3,0,0.5-0.1,0.8-0.2c0.2-0.1,0.4-0.2,0.6-0.4
	c0.1-0.2,0.2-0.4,0.2-0.7c0-0.3-0.1-0.5-0.3-0.6c-0.2-0.2-0.4-0.3-0.7-0.4c-0.3-0.1-0.6-0.2-1-0.2c-0.4-0.1-0.7-0.1-1.1-0.2
	c-0.4-0.1-0.7-0.1-1.1-0.2c-0.4-0.1-0.7-0.2-1-0.3c-0.3-0.1-0.5-0.3-0.7-0.6c-0.2-0.2-0.3-0.5-0.3-0.9c0-0.4,0.1-0.7,0.3-1
	c0.2-0.3,0.4-0.5,0.8-0.7c0.3-0.2,0.7-0.3,1.1-0.4c0.4-0.1,0.8-0.1,1.2-0.1c0.5,0,0.9,0,1.3,0.1c0.4,0.1,0.8,0.2,1.1,0.4
	c0.3,0.2,0.6,0.4,0.7,0.7c0.2,0.3,0.3,0.7,0.3,1.1h-1.2c-0.1-0.5-0.3-0.9-0.7-1.2c-0.4-0.2-0.9-0.4-1.6-0.4c-0.3,0-0.5,0-0.8,0.1
	c-0.3,0-0.5,0.1-0.7,0.2c-0.2,0.1-0.4,0.2-0.5,0.4c-0.1,0.2-0.2,0.4-0.2,0.6c0,0.2,0.1,0.4,0.3,0.6c0.2,0.1,0.4,0.3,0.7,0.4
	c0.3,0.1,0.6,0.2,1,0.2c0.4,0.1,0.7,0.1,1.1,0.2c0.4,0.1,0.7,0.2,1.1,0.2c0.4,0.1,0.7,0.2,1,0.4c0.3,0.2,0.5,0.4,0.7,0.6
	c0.2,0.2,0.3,0.6,0.3,0.9C47.5,100.9,47.4,101.3,47.1,101.6z"/>
<polygon class="st9" points="58.8,95.9 55.7,95.9 55.7,102.6 54.5,102.6 54.5,95.9 51.4,95.9 51.4,95.1 58.8,95.1 "/>
<rect x="63.3" y="95.1" class="st9" width="1.2" height="7.5"/>
<polygon class="st9" points="76.5,95.9 73.4,95.9 73.4,102.6 72.2,102.6 72.2,95.9 69.1,95.9 69.1,95.1 76.5,95.1 "/>
<path class="st9" d="M88.4,99.9c0,1-0.3,1.7-1,2.2c-0.6,0.5-1.5,0.7-2.7,0.7c-1.2,0-2.1-0.2-2.8-0.7c-0.7-0.5-1-1.2-1-2.2v-4.8h1.2
	v4.8c0,0.7,0.2,1.2,0.7,1.5c0.4,0.3,1.1,0.5,1.9,0.5c0.8,0,1.4-0.2,1.8-0.5c0.4-0.3,0.6-0.9,0.6-1.5v-4.8h1.2V99.9z"/>
<polygon class="st9" points="100.3,95.9 97.2,95.9 97.2,102.6 95.9,102.6 95.9,95.9 92.8,95.9 92.8,95.1 100.3,95.1 "/>
<rect x="20.9" y="95.1" class="st10" width="1.2" height="7.5"/>
<polygon class="st10" points="35.1,102.6 33.7,102.6 28.8,96.6 28.8,96.6 28.8,102.6 27.6,102.6 27.6,95.1 29,95.1 33.9,101.2 
	33.9,101.2 33.9,95.1 35.1,95.1 "/>
<path class="st10" d="M47.1,101.6c-0.2,0.3-0.5,0.5-0.9,0.7c-0.3,0.2-0.7,0.3-1.2,0.4c-0.4,0.1-0.9,0.1-1.3,0.1c-0.5,0-1,0-1.5-0.2
	c-0.5-0.1-0.9-0.3-1.2-0.5c-0.4-0.2-0.6-0.5-0.8-0.8c-0.2-0.3-0.3-0.7-0.3-1.2h1.2c0,0.3,0.1,0.6,0.2,0.8c0.2,0.2,0.4,0.4,0.6,0.6
	c0.2,0.1,0.5,0.3,0.9,0.3c0.3,0.1,0.7,0.1,1,0.1c0.3,0,0.6,0,0.8-0.1c0.3,0,0.5-0.1,0.8-0.2c0.2-0.1,0.4-0.2,0.6-0.4
	c0.1-0.2,0.2-0.4,0.2-0.7c0-0.3-0.1-0.5-0.3-0.6c-0.2-0.2-0.4-0.3-0.7-0.4c-0.3-0.1-0.6-0.2-1-0.2c-0.4-0.1-0.7-0.1-1.1-0.2
	c-0.4-0.1-0.7-0.1-1.1-0.2c-0.4-0.1-0.7-0.2-1-0.3c-0.3-0.1-0.5-0.3-0.7-0.6c-0.2-0.2-0.3-0.5-0.3-0.9c0-0.4,0.1-0.7,0.3-1
	c0.2-0.3,0.4-0.5,0.8-0.7c0.3-0.2,0.7-0.3,1.1-0.4c0.4-0.1,0.8-0.1,1.2-0.1c0.5,0,0.9,0,1.3,0.1c0.4,0.1,0.8,0.2,1.1,0.4
	c0.3,0.2,0.6,0.4,0.7,0.7c0.2,0.3,0.3,0.7,0.3,1.1h-1.2c-0.1-0.5-0.3-0.9-0.7-1.2c-0.4-0.2-0.9-0.4-1.6-0.4c-0.3,0-0.5,0-0.8,0.1
	c-0.3,0-0.5,0.1-0.7,0.2c-0.2,0.1-0.4,0.2-0.5,0.4c-0.1,0.2-0.2,0.4-0.2,0.6c0,0.2,0.1,0.4,0.3,0.6c0.2,0.1,0.4,0.3,0.7,0.4
	c0.3,0.1,0.6,0.2,1,0.2c0.4,0.1,0.7,0.1,1.1,0.2c0.4,0.1,0.7,0.2,1.1,0.2c0.4,0.1,0.7,0.2,1,0.4c0.3,0.2,0.5,0.4,0.7,0.6
	c0.2,0.2,0.3,0.6,0.3,0.9C47.5,100.9,47.4,101.3,47.1,101.6z"/>
<polygon class="st10" points="58.8,95.9 55.7,95.9 55.7,102.6 54.5,102.6 54.5,95.9 51.4,95.9 51.4,95.1 58.8,95.1 "/>
<rect x="63.3" y="95.1" class="st10" width="1.2" height="7.5"/>
<polygon class="st10" points="76.5,95.9 73.4,95.9 73.4,102.6 72.2,102.6 72.2,95.9 69.1,95.9 69.1,95.1 76.5,95.1 "/>
<path class="st10" d="M88.4,99.9c0,1-0.3,1.7-1,2.2c-0.6,0.5-1.5,0.7-2.7,0.7c-1.2,0-2.1-0.2-2.8-0.7c-0.7-0.5-1-1.2-1-2.2v-4.8h1.2
	v4.8c0,0.7,0.2,1.2,0.7,1.5c0.4,0.3,1.1,0.5,1.9,0.5c0.8,0,1.4-0.2,1.8-0.5c0.4-0.3,0.6-0.9,0.6-1.5v-4.8h1.2V99.9z"/>
<polygon class="st10" points="100.3,95.9 97.2,95.9 97.2,102.6 95.9,102.6 95.9,95.9 92.8,95.9 92.8,95.1 100.3,95.1 "/>
</svg>
